<?xml version="1.0" encoding="utf-8" ?>
<svg baseProfile="full" height="3561" version="1.1" width="6573" xmlns="http://www.w3.org/2000/svg" xmlns:ev="http://www.w3.org/2001/xml-events" xmlns:xlink="http://www.w3.org/1999/xlink"><defs /><path d="M 3678.00,846.00 C 3653.63,849.06 3629.19,851.97 3605.73,857.23 C 3582.50,863.06 3559.34,869.05 3536.68,876.27 C 3514.75,885.23 3493.58,896.01 3473.23,908.80 C 3453.04,921.94 3433.18,935.90 3413.60,950.54 C 3394.55,966.45 3377.12,984.88 3361.89,1004.21 C 3344.75,1022.03 3322.87,1012.88 3300.90,1004.02 C 3278.55,996.06 3256.19,988.14 3233.53,980.93 C 3210.82,973.86 3188.40,966.07 3166.09,958.02 C 3143.34,951.06 3120.44,944.43 3097.05,938.99 C 3073.92,932.92 3050.75,926.95 3025.92,925.00 C 3001.12,927.03 2977.09,930.92 2953.96,936.99 C 2932.04,945.98 2910.98,957.03 2890.71,970.01 C 2870.92,984.13 2851.64,999.49 2830.77,1011.01 C 2814.24,1028.76 2795.52,1045.48 2777.10,1062.90 C 2761.06,1081.90 2745.06,1100.92 2731.24,1120.83 C 2716.48,1140.36 2703.28,1160.54 2691.66,1181.36 C 2681.00,1202.59 2671.65,1224.36 2662.02,1246.01 C 2654.06,1268.36 2645.94,1290.64 2638.99,1313.40 C 2631.97,1336.13 2625.80,1359.22 2619.01,1382.05 C 2612.14,1404.85 2605.96,1427.93 2600.04,1451.12 C 2594.06,1474.28 2588.00,1497.41 2582.98,1520.98 C 2578.06,1544.58 2572.98,1568.12 2569.99,1592.53 C 2567.00,1616.93 2565.00,1641.74 2564.00,1666.97 C 2563.00,1692.20 2562.00,1717.42 2562.00,1743.07 C 2562.00,1768.71 2561.00,1793.94 2560.01,1819.17 C 2560.00,1844.81 2559.70,1870.32 2559.00,1895.68 C 2559.00,1921.32 2559.00,1946.96 2559.00,1972.60 C 2557.96,1997.81 2555.00,2022.23 2549.00,2045.38 C 2540.00,2067.30 2529.01,2088.39 2516.15,2108.70 C 2503.87,2129.26 2489.85,2149.10 2475.29,2168.71 C 2460.67,2188.29 2444.61,2207.28 2428.67,2226.32 C 2411.25,2244.75 2392.83,2262.18 2374.37,2279.51 C 2355.56,2296.00 2336.42,2311.72 2316.70,2326.01 C 2296.32,2338.71 2274.94,2348.99 2252.71,2357.24 C 2230.72,2366.06 2207.97,2373.04 2205.01,2394.96 C 2228.13,2399.03 2252.10,2395.00 2276.50,2391.99 C 2300.07,2386.99 2322.86,2380.11 2345.15,2372.02 C 2367.06,2363.01 2388.68,2353.30 2410.44,2343.94 C 2431.99,2334.05 2452.74,2322.24 2473.46,2310.37 C 2494.57,2299.42 2515.07,2287.00 2535.23,2273.77 C 2554.80,2259.11 2570.00,2262.42 2579.24,2284.24 C 2590.01,2305.42 2604.25,2325.16 2617.99,2345.12 C 2631.28,2365.25 2647.57,2383.54 2668.03,2396.07 C 2690.81,2402.96 2713.09,2411.08 2736.21,2417.17 C 2754.41,2429.44 2762.01,2451.94 2770.90,2473.89 C 2779.10,2496.14 2788.02,2518.09 2797.05,2539.99 C 2808.87,2560.73 2819.78,2581.86 2831.62,2602.60 C 2843.98,2623.12 2857.24,2643.27 2870.43,2663.44 C 2883.74,2683.57 2896.99,2703.73 2911.58,2722.99 C 2928.41,2741.41 2947.11,2758.16 2966.44,2773.42 C 2985.66,2787.52 3004.38,2804.21 3023.48,2820.00 C 3043.47,2833.65 3044.13,2844.90 3021.84,2852.99 C 2999.93,2861.99 2978.02,2871.01 2956.52,2881.00 C 2934.60,2890.00 2912.25,2897.94 2889.97,2906.07 C 2868.32,2915.70 2847.22,2926.66 2827.11,2940.00 C 2808.36,2956.65 2789.93,2974.06 2772.23,2991.79 C 2757.74,3011.43 2745.87,3032.16 2736.19,3053.79 C 2726.94,3075.60 2720.99,3098.78 2717.99,3123.18 C 2715.00,3146.75 2712.61,3171.40 2711.00,3196.38 C 2708.14,3220.84 2705.99,3245.59 2704.00,3270.40 C 2702.00,3295.22 2701.00,3320.45 2698.96,3345.24 C 2698.01,3370.49 2697.01,3395.72 2697.00,3421.36 C 2696.00,3446.58 2695.99,3472.22 2695.00,3497.45 C 2695.00,3523.10 2695.00,3548.74 2709.38,3560.00 C 2735.02,3560.00 2760.66,3560.00 2786.31,3560.00 C 2811.95,3560.00 2837.59,3560.00 2863.23,3560.00 C 2888.87,3560.00 2914.52,3560.00 2940.16,3560.00 C 2965.80,3560.00 2991.44,3560.00 3017.08,3560.00 C 3042.73,3560.00 3068.37,3560.00 3094.01,3560.00 C 3119.65,3560.00 3145.29,3560.00 3170.94,3560.00 C 3196.58,3560.00 3222.22,3560.00 3247.86,3560.00 C 3273.50,3560.00 3299.15,3560.00 3324.79,3560.00 C 3350.43,3560.00 3376.07,3560.00 3401.71,3560.00 C 3427.36,3560.00 3453.00,3560.00 3478.64,3560.00 C 3504.28,3560.00 3529.92,3560.00 3555.57,3560.00 C 3581.21,3560.00 3606.85,3560.00 3632.49,3560.00 C 3658.13,3560.00 3683.78,3560.00 3709.42,3560.00 C 3735.06,3560.00 3760.70,3560.00 3786.34,3560.00 C 3811.99,3560.00 3837.63,3560.00 3854.99,3551.73 C 3853.01,3526.91 3852.00,3501.69 3851.00,3476.46 C 3850.00,3451.23 3849.00,3426.01 3847.99,3400.78 C 3846.00,3375.96 3845.05,3350.71 3843.00,3325.92 C 3841.00,3301.11 3839.00,3276.30 3835.99,3251.90 C 3834.00,3227.08 3830.95,3202.70 3830.06,3177.43 C 3826.06,3153.45 3820.99,3129.90 3816.00,3106.33 C 3810.04,3083.16 3801.96,3060.86 3792.92,3038.96 C 3779.87,3018.73 3763.99,2999.66 3746.45,2982.46 C 3726.84,2967.90 3707.27,2953.24 3687.12,2940.00 C 3666.44,2928.01 3645.59,2916.43 3624.27,2906.00 C 3604.02,2892.99 3583.76,2879.99 3562.73,2868.86 C 3541.59,2857.99 3520.25,2847.47 3537.85,2832.23 C 3558.63,2820.49 3578.69,2807.01 3598.08,2791.93 C 3616.98,2777.06 3635.78,2760.35 3653.40,2742.60 C 3670.83,2724.17 3687.42,2706.57 3704.53,2688.60 C 3719.84,2669.30 3733.52,2649.33 3745.98,2628.85 C 3757.21,2607.86 3767.00,2586.27 3775.78,2564.27 C 3784.71,2542.32 3793.94,2520.50 3803.06,2498.64 C 3811.50,2476.49 3821.65,2456.06 3843.95,2448.00 C 3865.60,2438.36 3887.81,2430.05 3909.68,2420.95 C 3929.98,2408.05 3949.56,2393.43 3969.77,2380.32 C 3987.99,2363.34 4002.35,2343.64 4012.03,2322.02 C 4021.02,2300.09 4028.04,2278.05 4051.66,2282.94 C 4074.85,2288.87 4098.55,2293.56 4122.33,2298.05 C 4146.34,2302.00 4170.76,2304.95 4195.15,2307.96 C 4219.54,2311.00 4244.78,2311.96 4269.99,2313.00 C 4295.63,2313.00 4320.87,2312.02 4345.68,2310.00 C 4370.90,2309.00 4396.13,2310.01 4419.45,2311.62 C 4439.96,2324.00 4459.04,2314.14 4450.15,2292.15 C 4429.34,2280.48 4409.70,2265.99 4390.22,2251.12 C 4370.90,2235.85 4351.85,2219.94 4333.75,2201.75 C 4316.99,2183.05 4301.83,2163.68 4287.99,2143.77 C 4275.97,2123.11 4264.96,2102.03 4255.33,2080.37 C 4246.42,2058.42 4238.92,2035.89 4231.36,2013.38 C 4225.01,1990.37 4218.95,1967.23 4214.05,1943.62 C 4209.00,1920.07 4204.06,1896.48 4199.00,1872.93 C 4194.23,1849.26 4189.94,1825.40 4186.96,1800.99 C 4182.98,1777.00 4179.94,1752.61 4178.00,1727.78 C 4175.99,1702.97 4173.99,1678.15 4172.00,1653.33 C 4170.01,1628.52 4168.00,1603.71 4164.95,1579.33 C 4162.66,1554.64 4158.94,1530.54 4156.01,1506.11 C 4153.01,1481.71 4150.00,1457.31 4147.67,1432.64 C 4145.01,1408.10 4143.01,1383.28 4141.00,1358.47 C 4138.99,1333.66 4135.99,1309.26 4132.91,1284.90 C 4129.03,1260.86 4123.95,1237.32 4119.52,1213.52 C 4114.84,1189.81 4110.03,1166.17 4105.05,1142.58 C 4100.00,1119.04 4094.94,1095.49 4089.99,1071.90 C 4085.05,1048.30 4078.40,1025.42 4070.00,1003.25 C 4057.02,982.99 4039.99,964.97 4020.08,951.13 C 3999.67,938.52 3978.56,927.57 3957.50,916.50 C 3936.15,906.13 3914.31,896.95 3891.98,888.97 C 3869.45,881.45 3846.48,875.00 3823.32,869.01 C 3800.19,862.95 3776.57,858.06 3753.03,853.00 C 3729.04,849.00 3704.23,847.00 3679.00,846.00 " fill="none" stroke="black" stroke-width="2" /></svg>