<?xml version="1.0" encoding="utf-8" ?>
<svg baseProfile="full" height="3561" version="1.1" width="6573" xmlns="http://www.w3.org/2000/svg" xmlns:ev="http://www.w3.org/2001/xml-events" xmlns:xlink="http://www.w3.org/1999/xlink"><defs /><path d="M 3236.00,1158.00 C 3213.09,1160.00 3190.18,1162.01 3167.66,1164.95 C 3146.00,1169.98 3124.53,1175.47 3103.36,1181.67 C 3082.26,1188.05 3061.57,1195.40 3040.99,1203.03 C 3020.95,1211.97 3001.36,1222.00 2981.54,1231.45 C 2962.16,1242.00 2943.32,1253.81 2924.45,1265.57 C 2905.32,1276.71 2886.43,1288.43 2869.41,1303.44 C 2852.85,1319.15 2835.48,1334.55 2818.40,1350.60 C 2803.03,1367.98 2788.25,1385.60 2772.97,1403.01 C 2759.03,1420.98 2747.01,1439.74 2734.66,1458.36 C 2722.00,1476.86 2712.01,1496.46 2701.94,1516.04 C 2691.55,1535.47 2682.53,1555.47 2674.06,1575.71 C 2666.02,1596.12 2659.05,1616.97 2654.01,1638.62 C 2648.08,1659.91 2643.99,1681.96 2640.02,1704.05 C 2635.98,1726.12 2632.01,1748.22 2628.00,1770.29 C 2624.99,1792.79 2621.81,1815.21 2618.00,1837.37 C 2615.00,1859.87 2613.04,1882.80 2612.00,1906.11 C 2611.00,1929.44 2611.00,1953.18 2613.00,1976.09 C 2614.98,1999.01 2617.00,2021.92 2618.99,2044.83 C 2621.99,2067.32 2604.93,2081.07 2590.95,2099.02 C 2581.01,2118.64 2575.00,2139.89 2573.00,2162.81 C 2570.00,2185.30 2569.00,2208.63 2569.00,2232.37 C 2568.99,2256.11 2572.00,2278.61 2577.01,2300.27 C 2583.98,2321.13 2593.81,2340.80 2604.15,2360.26 C 2618.89,2377.89 2636.79,2391.99 2655.96,2403.02 C 2676.57,2410.59 2697.65,2416.99 2682.33,2426.00 C 2662.47,2435.36 2643.96,2447.98 2626.01,2461.97 C 2608.73,2476.15 2593.61,2492.53 2578.16,2509.91 C 2562.48,2526.53 2546.81,2543.19 2531.09,2559.84 C 2517.23,2577.84 2501.99,2595.27 2487.14,2612.86 C 2472.57,2630.56 2457.83,2648.20 2440.45,2663.58 C 2422.48,2677.52 2402.75,2687.21 2382.66,2696.02 C 2372.00,2714.36 2372.80,2737.77 2388.03,2754.03 C 2406.40,2766.99 2426.30,2776.27 2446.42,2785.00 C 2466.84,2793.02 2487.77,2799.81 2510.60,2802.00 C 2533.93,2803.00 2557.67,2803.00 2581.00,2802.01 C 2603.92,2800.01 2626.30,2796.74 2647.23,2789.95 C 2667.76,2782.20 2687.54,2772.64 2706.92,2762.12 C 2726.07,2751.02 2744.59,2738.44 2761.99,2724.23 C 2776.74,2707.18 2791.46,2689.54 2804.37,2671.73 C 2815.00,2652.39 2823.03,2631.98 2831.97,2611.94 C 2843.55,2612.42 2858.39,2629.42 2874.37,2645.37 C 2891.75,2660.75 2908.99,2675.02 2927.35,2688.00 C 2946.54,2699.00 2966.09,2709.11 2986.16,2717.97 C 3006.17,2726.99 3026.12,2736.13 3046.58,2744.06 C 3066.59,2753.06 3085.98,2762.03 3067.61,2775.01 C 3048.86,2787.06 3030.92,2801.08 3012.94,2814.98 C 2995.30,2829.70 2978.06,2844.01 2961.70,2860.40 C 2945.11,2874.83 2929.36,2891.50 2918.00,2910.53 C 2906.62,2929.56 2894.68,2948.35 2884.00,2967.67 C 2873.06,2986.88 2864.02,3006.88 2853.69,3026.34 C 2844.69,3046.35 2835.03,3066.09 2827.06,3086.53 C 2818.97,3106.92 2810.78,3127.27 2802.96,3147.77 C 2795.94,3168.60 2789.36,3189.62 2783.18,3210.80 C 2778.06,3232.42 2772.00,3253.65 2768.05,3275.75 C 2764.01,3297.82 2759.97,3319.89 2756.94,3342.37 C 2755.00,3365.31 2754.00,3388.64 2752.00,3411.55 C 2751.00,3434.88 2751.00,3458.62 2753.00,3481.53 C 2754.00,3504.86 2756.99,3527.36 2760.00,3549.85 C 2774.76,3560.00 2798.50,3560.00 2822.25,3560.00 C 2845.99,3560.00 2869.73,3560.00 2893.47,3560.00 C 2917.21,3560.00 2940.95,3560.00 2964.69,3560.00 C 2988.43,3560.00 3012.17,3560.00 3035.91,3560.00 C 3059.65,3560.00 3083.39,3560.00 3107.13,3560.00 C 3130.87,3560.00 3154.62,3560.00 3178.36,3560.00 C 3202.10,3560.00 3225.84,3560.00 3249.58,3560.00 C 3273.32,3560.00 3297.06,3560.00 3320.80,3560.00 C 3344.54,3560.00 3368.28,3560.00 3392.02,3560.00 C 3415.76,3560.00 3439.50,3560.00 3463.24,3560.00 C 3486.99,3560.00 3510.73,3560.00 3534.47,3560.00 C 3558.21,3560.00 3581.95,3560.00 3605.69,3560.00 C 3629.43,3560.00 3653.17,3560.00 3676.91,3560.00 C 3700.65,3560.00 3724.39,3560.00 3748.13,3560.00 C 3771.87,3560.00 3788.00,3552.39 3788.99,3529.05 C 3788.00,3505.73 3787.00,3482.40 3786.00,3459.08 C 3785.00,3435.75 3784.00,3412.43 3784.06,3388.66 C 3782.00,3365.77 3780.63,3342.60 3778.00,3319.95 C 3775.99,3297.04 3771.99,3274.96 3768.02,3252.86 C 3763.04,3231.18 3757.01,3209.94 3749.98,3189.11 C 3743.16,3168.20 3736.28,3147.30 3728.03,3126.98 C 3720.06,3106.54 3711.00,3086.55 3702.98,3066.13 C 3694.10,3046.07 3684.24,3026.41 3674.02,3006.90 C 3663.52,2987.52 3651.80,2968.63 3638.30,2950.48 C 3627.00,2931.42 3616.15,2912.17 3604.40,2893.30 C 3588.96,2875.96 3573.58,2858.58 3559.54,2840.66 C 3544.66,2823.67 3529.98,2806.01 3514.73,2788.58 C 3499.25,2771.25 3513.68,2761.07 3534.52,2754.06 C 3554.10,2744.02 3573.49,2733.51 3592.57,2722.25 C 3611.78,2711.33 3630.34,2698.80 3648.58,2685.55 C 3666.51,2671.49 3684.46,2657.51 3701.50,2641.34 C 3718.92,2626.08 3729.02,2638.89 3736.95,2659.34 C 3746.00,2679.34 3756.56,2698.70 3771.00,2716.46 C 3785.29,2734.28 3802.41,2750.26 3820.02,2765.05 C 3838.40,2778.01 3857.10,2790.16 3876.83,2799.85 C 3897.59,2807.06 3918.88,2812.97 3940.95,2817.01 C 3963.04,2820.99 3986.77,2821.00 4010.52,2821.00 C 4033.43,2819.00 4055.95,2816.06 4078.00,2811.99 C 4099.47,2806.50 4120.92,2800.96 4142.63,2796.06 C 4163.47,2789.06 4184.31,2782.05 4204.30,2773.00 C 4224.23,2763.81 4243.31,2752.55 4243.00,2738.08 C 4242.00,2714.75 4222.09,2707.99 4201.15,2701.21 C 4181.78,2690.66 4162.66,2679.51 4144.06,2667.09 C 4125.75,2653.99 4108.15,2639.15 4091.99,2622.69 C 4077.12,2605.11 4063.99,2586.81 4051.01,2568.44 C 4038.70,2549.80 4026.92,2530.94 4015.75,2511.83 C 4003.32,2493.24 3988.43,2476.00 3971.22,2460.22 C 3954.14,2444.14 3936.25,2430.01 3917.66,2417.61 C 3933.92,2408.97 3953.53,2398.99 3971.91,2386.05 C 3989.00,2370.58 4003.01,2352.64 4016.42,2334.46 C 4028.33,2315.65 4034.54,2294.48 4040.00,2273.00 C 4043.09,2252.11 4042.97,2230.08 4041.07,2209.67 C 4038.02,2187.97 4033.94,2167.58 4030.07,2145.44 C 4024.03,2124.20 4015.85,2103.85 4003.98,2085.02 C 3987.39,2069.23 3969.09,2056.10 3970.92,2034.91 C 3970.01,2013.21 3970.63,1991.39 3972.04,1970.71 C 3971.70,1949.33 3972.04,1927.34 3971.00,1906.52 C 3969.08,1886.06 3967.96,1865.26 3968.04,1843.99 C 3968.95,1822.30 3968.00,1800.65 3965.10,1778.11 C 3962.01,1757.31 3960.00,1736.90 3955.01,1715.21 C 3952.05,1694.35 3946.07,1673.09 3941.00,1651.45 C 3935.01,1630.19 3927.01,1609.76 3918.95,1589.36 C 3910.21,1569.24 3902.64,1548.63 3895.01,1528.05 C 3887.00,1507.63 3879.14,1487.15 3868.64,1467.76 C 3857.01,1448.83 3846.34,1429.51 3833.94,1410.91 C 3819.93,1392.97 3806.71,1374.71 3792.04,1357.04 C 3778.11,1339.07 3761.44,1323.41 3745.34,1306.34 C 3727.96,1290.96 3710.30,1276.30 3691.65,1263.99 C 3672.33,1253.31 3652.61,1243.63 3632.89,1233.90 C 3613.18,1224.17 3592.84,1215.98 3571.99,1209.00 C 3550.80,1202.84 3529.92,1195.92 3509.33,1188.31 C 3488.20,1182.02 3466.54,1177.00 3444.04,1174.00 C 3420.79,1172.82 3397.80,1171.00 3374.89,1169.00 C 3351.98,1166.99 3329.47,1164.01 3306.98,1160.99 C 3284.48,1158.00 3260.74,1158.00 3237.00,1158.00 " fill="none" stroke="black" stroke-width="2" /></svg>