<?xml version="1.0" encoding="utf-8" ?>
<svg baseProfile="full" height="3561" version="1.1" width="6573" xmlns="http://www.w3.org/2000/svg" xmlns:ev="http://www.w3.org/2001/xml-events" xmlns:xlink="http://www.w3.org/1999/xlink"><defs /><path d="M 3236.00,1158.00 C 3210.13,1160.00 3184.66,1162.99 3159.62,1167.00 C 3135.43,1173.06 3111.17,1178.96 3087.56,1186.43 C 3064.00,1194.04 3041.02,1203.02 3018.45,1213.00 C 2996.51,1224.49 2974.15,1234.99 2952.59,1247.39 C 2931.61,1261.22 2910.15,1273.87 2888.93,1287.11 C 2869.48,1303.39 2850.80,1321.17 2831.34,1338.66 C 2812.88,1357.13 2796.07,1376.87 2778.67,1396.36 C 2762.59,1416.41 2748.66,1437.34 2728.67,1444.70 C 2703.92,1439.99 2678.33,1437.30 2652.57,1435.00 C 2626.29,1434.00 2600.00,1435.00 2574.12,1437.00 C 2548.75,1440.22 2524.02,1444.98 2499.86,1451.11 C 2476.39,1458.93 2453.91,1469.11 2432.10,1480.94 C 2410.40,1493.01 2389.31,1506.57 2368.99,1521.98 C 2348.61,1537.24 2329.19,1554.81 2310.30,1573.70 C 2292.13,1592.87 2276.07,1612.92 2261.31,1633.51 C 2249.02,1655.13 2238.52,1677.48 2228.85,1700.18 C 2218.96,1722.78 2210.89,1746.14 2203.07,1769.61 C 2196.06,1793.41 2189.59,1817.43 2184.11,1841.87 C 2181.00,1867.28 2178.90,1893.11 2177.02,1919.04 C 2174.97,1944.89 2175.00,1971.61 2174.95,1998.33 C 2177.00,2024.19 2180.01,2049.64 2183.99,2074.70 C 2189.21,2099.24 2196.82,2122.79 2204.99,2146.11 C 2214.07,2169.05 2224.99,2191.23 2237.01,2212.96 C 2255.46,2229.99 2280.08,2235.00 2303.93,2228.11 C 2321.02,2209.63 2330.07,2186.68 2338.53,2163.48 C 2348.00,2140.70 2358.02,2118.14 2369.73,2096.29 C 2381.53,2074.48 2394.86,2053.29 2408.01,2032.04 C 2422.51,2011.34 2437.97,1991.04 2453.21,1970.65 C 2470.09,1950.94 2486.83,1931.17 2504.98,1911.98 C 2522.45,1892.52 2539.94,1873.06 2558.11,1853.88 C 2576.36,1834.74 2594.47,1815.53 2612.64,1796.36 C 2624.99,1792.39 2621.00,1817.45 2617.34,1842.63 C 2614.01,1867.96 2612.00,1893.83 2611.00,1920.11 C 2611.00,1946.82 2613.00,1972.69 2614.72,1998.69 C 2617.00,2024.44 2620.00,2049.90 2616.87,2072.98 C 2597.59,2089.44 2584.33,2110.65 2575.96,2133.89 C 2573.44,2159.55 2569.99,2184.82 2569.00,2211.12 C 2569.00,2237.82 2570.00,2264.11 2573.95,2289.17 C 2580.97,2312.97 2591.00,2335.52 2603.00,2357.25 C 2618.52,2377.53 2638.82,2393.01 2660.40,2405.38 C 2683.95,2412.99 2708.16,2419.00 2732.27,2421.25 C 2746.94,2440.72 2755.80,2463.76 2766.00,2486.23 C 2777.00,2508.38 2787.57,2530.71 2800.11,2552.22 C 2814.07,2573.13 2828.99,2593.66 2844.87,2613.78 C 2861.16,2633.15 2879.90,2650.94 2899.30,2667.17 C 2919.45,2683.00 2940.83,2695.85 2962.64,2707.66 C 2985.06,2718.00 3007.73,2727.75 3030.19,2737.97 C 3053.41,2746.39 3076.10,2756.07 3075.72,2770.42 C 3054.41,2783.43 3034.13,2798.94 3013.75,2814.21 C 2994.01,2831.01 2975.33,2847.61 2955.85,2865.00 C 2937.27,2881.75 2923.42,2902.72 2909.99,2923.86 C 2896.93,2945.15 2884.34,2966.64 2872.55,2988.46 C 2861.99,3010.79 2850.32,3032.66 2840.67,3055.37 C 2830.95,3078.04 2820.94,3100.60 2811.94,3123.58 C 2803.27,3146.69 2795.76,3170.28 2787.95,3193.75 C 2781.28,3217.69 2775.13,3241.85 2769.72,3266.31 C 2765.00,3291.06 2760.99,3316.10 2757.62,3341.40 C 2755.00,3367.02 2753.01,3392.90 2751.88,3419.14 C 2751.00,3445.48 2752.00,3471.77 2754.00,3497.64 C 2755.93,3523.54 2759.99,3548.57 2776.44,3560.00 C 2803.14,3560.00 2829.84,3560.00 2856.55,3560.00 C 2883.25,3560.00 2909.95,3560.00 2936.66,3560.00 C 2963.36,3560.00 2990.06,3560.00 3016.77,3560.00 C 3043.47,3560.00 3070.17,3560.00 3096.88,3560.00 C 3123.58,3560.00 3150.28,3560.00 3176.99,3560.00 C 3203.69,3560.00 3230.39,3560.00 3257.10,3560.00 C 3283.80,3560.00 3310.50,3560.00 3337.21,3560.00 C 3363.91,3560.00 3390.61,3560.00 3417.32,3560.00 C 3444.02,3560.00 3470.72,3560.00 3497.43,3560.00 C 3524.13,3560.00 3550.83,3560.00 3577.54,3560.00 C 3604.24,3560.00 3630.94,3560.00 3657.65,3560.00 C 3684.35,3560.00 3711.05,3560.00 3737.76,3560.00 C 3764.46,3560.00 3788.00,3556.84 3789.06,3530.57 C 3788.00,3504.26 3787.00,3477.97 3786.00,3451.68 C 3785.00,3425.39 3784.00,3399.10 3782.00,3373.23 C 3781.00,3346.94 3778.01,3321.47 3776.06,3295.58 C 3770.98,3270.98 3766.00,3246.34 3759.98,3222.13 C 3753.06,3198.29 3745.68,3174.64 3738.03,3151.11 C 3729.03,3128.13 3719.39,3105.42 3709.76,3082.71 C 3700.05,3060.03 3690.00,3037.49 3679.22,3015.25 C 3666.64,2993.76 3654.01,2972.29 3639.69,2951.51 C 3626.32,2930.35 3614.00,2908.75 3599.89,2887.89 C 3582.51,2868.38 3565.58,2848.69 3549.52,2828.64 C 3532.53,2809.56 3515.06,2790.10 3498.34,2770.32 C 3517.37,2759.66 3540.31,2750.55 3562.45,2739.56 C 3584.30,2727.84 3605.49,2714.51 3626.60,2701.01 C 3647.09,2686.01 3667.37,2670.51 3687.46,2654.54 C 3697.97,2633.01 3717.45,2615.55 3735.62,2596.38 C 3753.06,2576.90 3770.53,2557.43 3786.52,2537.35 C 3804.10,2517.93 3819.33,2497.53 3834.85,2477.26 C 3849.41,2456.59 3862.65,2435.37 3877.52,2415.32 C 3902.41,2415.06 3927.45,2410.93 3950.03,2400.96 C 3970.97,2387.05 3989.66,2369.25 4005.78,2349.22 C 4021.07,2328.85 4032.00,2306.68 4039.11,2282.92 C 4042.00,2258.24 4044.01,2234.04 4040.15,2210.77 C 4037.60,2186.58 4033.29,2163.32 4028.05,2138.79 C 4020.27,2115.31 4009.01,2093.27 3993.14,2073.14 C 3972.29,2059.01 3970.99,2036.31 3969.95,2011.66 C 3971.02,1987.04 3971.01,1963.67 3972.01,1939.87 C 3970.00,1915.64 3970.04,1892.27 3981.07,1886.99 C 4001.10,1903.10 4020.56,1920.59 4039.45,1939.46 C 4058.63,1957.62 4077.77,1975.88 4096.98,1993.98 C 4116.15,2012.15 4135.46,2030.00 4154.80,2047.80 C 4173.97,2065.97 4192.09,2085.17 4210.40,2104.29 C 4227.11,2124.07 4243.08,2144.16 4259.86,2163.91 C 4277.26,2183.41 4295.54,2202.54 4312.01,2222.42 C 4324.99,2243.75 4342.63,2262.46 4364.98,2272.96 C 4390.88,2273.10 4414.19,2264.91 4432.12,2246.75 C 4443.00,2224.55 4451.03,2201.17 4457.77,2177.26 C 4463.00,2152.72 4466.00,2127.26 4468.00,2101.39 C 4468.00,2074.68 4467.00,2048.39 4464.94,2022.54 C 4463.00,1996.64 4459.99,1971.19 4455.96,1946.15 C 4452.06,1921.06 4447.99,1896.05 4442.59,1871.58 C 4435.94,1847.63 4429.04,1823.79 4421.07,1800.39 C 4411.94,1777.47 4402.63,1754.62 4392.00,1732.32 C 4381.00,1710.17 4369.29,1688.32 4357.62,1666.45 C 4344.17,1645.32 4331.06,1624.04 4316.41,1603.41 C 4300.25,1583.40 4284.00,1563.42 4266.83,1543.83 C 4249.37,1524.36 4230.90,1505.89 4211.61,1488.00 C 4191.53,1472.00 4171.02,1457.04 4150.14,1442.99 C 4128.85,1429.93 4107.10,1417.97 4084.93,1407.02 C 4061.98,1397.96 4038.98,1389.01 4015.13,1382.12 C 3990.55,1377.00 3965.50,1373.00 3939.63,1371.00 C 3913.34,1370.00 3887.05,1371.00 3860.76,1372.00 C 3834.88,1373.99 3809.01,1376.01 3792.01,1356.93 C 3775.57,1337.71 3757.85,1318.85 3738.97,1299.97 C 3719.28,1283.01 3698.88,1267.81 3677.08,1255.97 C 3654.94,1244.94 3632.83,1233.86 3610.63,1223.00 C 3587.46,1214.45 3563.89,1206.90 3540.48,1198.94 C 3517.07,1190.99 3493.48,1183.48 3469.33,1177.30 C 3444.00,1174.00 3418.12,1172.01 3391.84,1171.00 C 3366.37,1168.01 3340.92,1164.99 3315.45,1162.00 C 3290.00,1158.99 3263.70,1158.00 3237.00,1158.00 " fill="none" stroke="black" stroke-width="2" /></svg>