<?xml version="1.0" encoding="utf-8" ?>
<svg baseProfile="full" height="3561" version="1.1" width="6573" xmlns="http://www.w3.org/2000/svg" xmlns:ev="http://www.w3.org/2001/xml-events" xmlns:xlink="http://www.w3.org/1999/xlink"><defs /><path d="M 3527.00,675.00 C 3497.69,680.95 3471.19,693.70 3447.00,712.01 C 3425.05,732.92 3406.17,756.89 3390.04,781.98 C 3375.31,807.66 3361.02,833.51 3347.00,859.49 C 3333.36,885.61 3320.83,912.20 3310.01,916.51 C 3306.01,886.39 3301.99,856.27 3297.01,826.56 C 3294.00,796.03 3282.57,773.01 3259.88,755.88 C 3236.82,734.84 3211.71,718.75 3183.56,710.00 C 3152.60,710.00 3123.79,717.15 3097.21,729.68 C 3072.18,745.99 3048.28,764.99 3026.13,786.85 C 3006.60,810.54 2990.51,835.65 2977.85,862.18 C 2957.91,859.82 2937.50,836.49 2914.83,815.91 C 2889.21,801.05 2861.57,791.06 2832.30,785.00 C 2801.36,785.01 2772.88,792.98 2747.51,808.45 C 2726.22,830.84 2709.34,855.63 2699.93,883.51 C 2690.93,911.56 2683.03,940.06 2676.98,969.33 C 2671.99,999.04 2667.15,1028.81 2663.00,1058.87 C 2659.03,1089.00 2654.99,1119.10 2651.01,1149.23 C 2647.99,1179.76 2645.02,1210.30 2634.00,1196.48 C 2621.80,1169.76 2609.92,1142.90 2597.99,1116.07 C 2586.00,1089.26 2573.01,1062.86 2560.00,1036.47 C 2546.33,1010.36 2532.77,984.81 2505.47,974.00 C 2474.94,975.01 2446.04,981.97 2419.53,994.66 C 2394.95,1012.03 2373.19,1034.81 2354.31,1058.77 C 2338.00,1083.79 2326.26,1110.70 2320.10,1139.93 C 2320.61,1169.43 2324.98,1198.89 2332.54,1227.54 C 2340.01,1256.22 2346.97,1285.12 2354.01,1313.97 C 2362.06,1342.42 2369.01,1371.32 2376.12,1400.15 C 2383.78,1428.75 2374.70,1435.60 2350.63,1416.99 C 2326.47,1398.62 2302.56,1379.60 2278.07,1362.03 C 2253.34,1345.01 2228.61,1328.01 2204.13,1337.91 C 2178.66,1353.20 2157.09,1374.95 2142.37,1400.63 C 2133.32,1428.65 2128.00,1458.23 2127.00,1489.59 C 2131.05,1519.69 2142.79,1546.61 2159.75,1570.79 C 2188.96,1576.99 2215.82,1588.85 2242.57,1601.00 C 2269.55,1612.58 2296.18,1625.00 2322.69,1637.72 C 2348.99,1650.95 2375.26,1664.23 2401.75,1677.00 C 2428.14,1689.99 2454.94,1702.02 2481.81,1713.86 C 2509.28,1724.26 2536.71,1734.76 2564.48,1744.44 C 2592.27,1754.07 2605.00,1776.00 2607.01,1806.94 C 2609.65,1837.62 2613.02,1868.00 2617.99,1897.73 C 2620.96,1928.27 2628.03,1957.12 2637.87,1984.82 C 2647.59,2012.57 2638.40,2033.65 2611.52,2045.47 C 2587.32,2063.71 2574.03,2089.98 2564.26,2117.71 C 2558.01,2146.90 2553.98,2177.01 2555.00,2206.72 C 2560.29,2236.31 2570.04,2264.04 2582.01,2290.87 C 2596.51,2316.64 2614.81,2340.83 2631.66,2365.63 C 2652.57,2387.57 2678.84,2400.87 2706.88,2409.89 C 2735.71,2416.99 2756.07,2434.32 2766.01,2461.98 C 2776.42,2489.44 2786.96,2516.85 2799.00,2543.64 C 2813.43,2569.44 2828.00,2595.19 2842.89,2620.79 C 2858.90,2645.94 2875.83,2670.70 2891.18,2696.12 C 2909.47,2720.32 2930.01,2743.01 2953.63,2762.68 C 2977.58,2781.58 3000.50,2801.54 3024.49,2820.35 C 3049.37,2837.01 3032.31,2848.76 3005.20,2860.03 C 2977.98,2871.03 2951.16,2883.00 2923.94,2893.99 C 2896.23,2903.83 2869.09,2915.01 2843.42,2929.76 C 2818.84,2947.14 2795.80,2968.21 2773.77,2990.27 C 2755.51,3014.49 2742.01,3040.67 2730.35,3067.62 C 2721.32,3095.65 2718.03,3126.07 2714.00,3155.35 C 2712.00,3186.30 2708.99,3216.83 2705.99,3247.36 C 2703.81,3278.23 2700.97,3308.83 2700.00,3340.21 C 2698.02,3371.16 2697.00,3402.52 2696.00,3433.88 C 2696.00,3465.66 2695.00,3497.02 2695.00,3528.80 C 2695.51,3560.06 2727.35,3560.00 2759.13,3560.00 C 2790.91,3560.00 2822.68,3560.00 2854.46,3560.00 C 2886.24,3560.00 2918.01,3560.00 2949.79,3560.00 C 2981.57,3560.00 3013.34,3560.00 3045.12,3560.00 C 3076.90,3560.00 3108.67,3560.00 3140.45,3560.00 C 3172.23,3560.00 3204.00,3560.00 3235.78,3560.00 C 3267.56,3560.00 3299.33,3560.00 3331.11,3560.00 C 3362.89,3560.00 3394.66,3560.00 3426.44,3560.00 C 3458.22,3560.00 3489.99,3560.00 3521.77,3560.00 C 3553.55,3560.00 3585.32,3560.00 3617.10,3560.00 C 3648.88,3560.00 3680.66,3560.00 3712.43,3560.00 C 3744.21,3560.00 3775.99,3560.00 3807.76,3560.00 C 3839.54,3560.00 3854.00,3544.10 3853.01,3512.73 C 3851.00,3481.79 3850.00,3450.42 3849.01,3419.06 C 3847.00,3388.12 3845.00,3357.17 3843.00,3326.22 C 3839.97,3295.70 3838.04,3264.72 3835.00,3234.20 C 3831.79,3203.75 3829.00,3173.13 3823.94,3143.45 C 3818.00,3114.14 3810.47,3085.48 3800.93,3057.65 C 3788.02,3031.23 3769.92,3006.95 3749.01,2984.99 C 3725.08,2966.04 3700.59,2948.45 3675.16,2933.13 C 3649.23,2919.00 3623.19,2905.16 3598.11,2889.00 C 3572.67,2873.70 3546.41,2860.39 3520.07,2847.17 C 3542.98,2829.02 3568.51,2813.93 3592.90,2796.10 C 3616.43,2777.59 3638.76,2756.23 3660.78,2734.16 C 3682.43,2712.52 3703.10,2689.89 3721.23,2665.63 C 3739.00,2641.21 3752.98,2615.22 3766.00,2588.84 C 3776.59,2561.45 3787.99,2534.40 3799.60,2507.42 C 3810.04,2479.97 3823.26,2454.99 3850.89,2444.99 C 3877.78,2433.18 3905.34,2422.99 3930.62,2407.33 C 3955.18,2389.90 3979.39,2371.64 3999.32,2348.68 C 4011.97,2322.15 4023.02,2294.94 4028.01,2265.23 C 4033.02,2235.53 4037.07,2205.43 4036.00,2174.87 C 4029.73,2145.69 4019.21,2118.27 4006.71,2091.67 C 3991.99,2065.99 3970.50,2044.00 3945.26,2028.22 C 3939.93,2004.51 3946.99,1975.66 3950.94,1945.52 C 3957.00,1916.25 3962.00,1886.55 3965.94,1856.40 C 3970.00,1826.31 3974.01,1796.19 3977.01,1765.66 C 3980.00,1735.12 3981.98,1704.16 3982.00,1673.23 C 4006.10,1657.84 4032.40,1644.62 4058.66,1631.30 C 4084.93,1617.99 4110.94,1604.07 4136.93,1590.11 C 4162.44,1574.98 4187.61,1559.02 4212.75,1543.00 C 4237.94,1527.10 4263.46,1512.00 4289.43,1497.98 C 4315.42,1484.00 4341.39,1470.00 4367.23,1455.65 C 4394.18,1444.00 4416.27,1426.54 4429.01,1400.04 C 4436.05,1371.18 4438.00,1340.21 4438.00,1309.26 C 4435.01,1278.73 4427.99,1249.86 4417.44,1222.45 C 4402.04,1197.05 4379.65,1175.82 4353.63,1161.93 C 4324.72,1155.00 4295.31,1158.73 4280.24,1180.67 C 4257.30,1202.00 4234.45,1223.55 4211.69,1245.31 C 4211.93,1230.55 4223.06,1203.39 4233.17,1175.80 C 4243.67,1148.37 4252.93,1120.43 4261.93,1092.38 C 4271.06,1064.38 4278.97,1035.88 4287.06,1007.46 C 4285.01,978.97 4274.00,951.75 4257.73,926.71 C 4236.41,904.26 4210.98,888.95 4183.30,879.06 C 4153.64,873.94 4122.25,874.99 4092.96,880.99 C 4065.25,890.81 4038.65,903.31 4018.00,923.04 C 4004.60,949.27 3991.40,975.58 3978.86,1002.16 C 3980.05,983.76 3986.38,954.60 3993.01,925.57 C 3998.98,896.27 4003.00,866.98 3993.01,839.35 C 3979.97,812.97 3962.42,788.46 3938.31,770.02 C 3910.76,759.81 3880.98,754.99 3850.02,754.98 C 3821.41,762.63 3797.47,780.36 3781.03,802.99 C 3761.48,826.67 3740.32,849.68 3719.97,873.03 C 3699.62,896.38 3679.98,920.02 3660.00,943.52 C 3640.67,967.29 3621.86,991.27 3602.90,1015.20 C 3592.58,1017.44 3600.91,989.11 3608.52,960.49 C 3617.05,932.24 3625.04,903.78 3632.07,874.91 C 3639.73,846.31 3650.00,818.79 3644.06,789.47 C 3637.06,760.59 3625.58,733.57 3608.70,708.78 C 3585.75,689.00 3558.56,677.94 3528.00,675.01 " fill="none" stroke="black" stroke-width="2" /></svg>