<?xml version="1.0" encoding="utf-8" ?>
<svg baseProfile="full" height="3561" version="1.1" width="6573" xmlns="http://www.w3.org/2000/svg" xmlns:ev="http://www.w3.org/2001/xml-events" xmlns:xlink="http://www.w3.org/1999/xlink"><defs /><path d="M 3310.00,1142.00 C 3288.29,1144.99 3266.98,1148.98 3245.77,1153.19 C 3225.17,1158.85 3204.32,1163.94 3183.86,1169.98 C 3163.84,1177.04 3143.79,1184.05 3123.69,1190.95 C 3104.08,1199.03 3084.59,1207.39 3065.44,1216.57 C 3046.56,1226.42 3027.70,1236.28 3009.13,1246.87 C 2990.84,1258.14 2972.88,1270.19 2954.89,1282.17 C 2936.88,1294.11 2919.19,1306.81 2901.70,1320.00 C 2884.42,1333.72 2866.98,1347.02 2849.87,1361.13 C 2833.05,1375.94 2816.24,1390.78 2800.42,1406.58 C 2784.88,1423.10 2770.07,1439.92 2755.28,1456.74 C 2741.87,1474.14 2728.33,1491.49 2716.46,1509.53 C 2705.24,1527.83 2694.63,1546.39 2685.00,1565.36 C 2675.94,1584.56 2672.00,1605.88 2669.97,1628.00 C 2667.91,1650.10 2666.00,1672.26 2664.00,1694.38 C 2663.00,1716.92 2662.00,1739.46 2661.00,1762.00 C 2661.00,1784.96 2660.00,1807.50 2660.99,1830.04 C 2661.00,1852.99 2662.00,1875.53 2663.00,1898.07 C 2664.00,1920.61 2665.99,1942.74 2668.00,1964.86 C 2671.06,1986.55 2679.00,2006.21 2680.94,2027.48 C 2663.26,2038.00 2641.98,2035.96 2621.36,2030.34 C 2601.42,2023.07 2581.56,2015.58 2561.77,2007.95 C 2541.72,2000.94 2521.64,1994.00 2501.56,1987.06 C 2481.50,1980.07 2461.50,1972.93 2440.99,1967.03 C 2420.66,1960.70 2400.51,1953.93 2380.00,1948.03 C 2359.57,1941.94 2338.25,1938.00 2316.14,1938.04 C 2295.66,1944.01 2280.45,1959.69 2273.00,1979.56 C 2272.00,2002.09 2274.87,2023.86 2279.94,2044.72 C 2287.53,2064.53 2296.70,2083.68 2307.00,2102.37 C 2317.99,2120.77 2330.63,2138.49 2343.95,2155.92 C 2358.03,2173.04 2372.86,2189.86 2389.09,2206.09 C 2405.33,2222.30 2422.14,2237.14 2439.25,2251.25 C 2456.65,2264.65 2474.31,2277.42 2492.29,2289.43 C 2510.45,2301.00 2528.85,2312.01 2547.15,2323.23 C 2566.03,2333.08 2584.92,2342.89 2604.37,2351.35 C 2623.81,2359.82 2639.53,2374.42 2655.30,2390.40 C 2674.72,2398.94 2695.14,2405.04 2715.21,2412.01 C 2736.06,2417.08 2753.84,2426.80 2760.86,2446.85 C 2767.91,2466.88 2774.99,2486.91 2783.06,2506.51 C 2790.97,2526.19 2800.00,2545.41 2810.92,2563.84 C 2820.83,2582.69 2831.00,2601.43 2841.89,2619.87 C 2853.86,2637.87 2865.84,2655.86 2877.92,2673.81 C 2888.99,2692.18 2901.89,2709.79 2915.62,2726.47 C 2930.33,2743.33 2947.13,2758.19 2964.22,2772.34 C 2981.94,2784.97 2998.09,2799.99 3015.42,2813.56 C 3032.84,2826.93 3051.13,2838.20 3038.11,2846.91 C 3018.09,2853.99 2998.61,2862.38 2979.25,2871.04 C 2959.99,2879.98 2940.26,2887.76 2920.51,2895.48 C 2900.23,2901.94 2880.72,2910.26 2861.29,2918.75 C 2842.98,2929.99 2825.00,2942.00 2808.19,2956.83 C 2791.67,2972.34 2775.85,2988.15 2761.84,3005.31 C 2750.01,3023.36 2740.94,3042.56 2732.84,3062.16 C 2724.95,3081.84 2719.95,3102.72 2717.99,3124.86 C 2714.96,3145.74 2713.00,3167.88 2712.06,3190.44 C 2708.98,3212.12 2707.00,3234.25 2705.00,3256.38 C 2703.33,3278.64 2702.00,3301.05 2701.06,3323.61 C 2698.95,3345.69 2697.96,3368.23 2697.99,3391.20 C 2697.00,3413.75 2696.00,3436.29 2696.00,3459.24 C 2695.00,3481.78 2695.00,3504.73 2695.00,3527.69 C 2695.00,3550.64 2708.60,3560.00 2731.55,3560.00 C 2754.50,3560.00 2777.46,3560.00 2800.41,3560.00 C 2823.37,3560.00 2846.32,3560.00 2869.27,3560.00 C 2892.23,3560.00 2915.18,3560.00 2938.14,3560.00 C 2961.09,3560.00 2984.04,3560.00 3007.00,3560.00 C 3029.95,3560.00 3052.91,3560.00 3075.86,3560.00 C 3098.81,3560.00 3121.77,3560.00 3144.72,3560.00 C 3167.68,3560.00 3190.63,3560.00 3213.58,3560.00 C 3236.54,3560.00 3259.49,3560.00 3282.45,3560.00 C 3305.40,3560.00 3328.35,3560.00 3351.31,3560.00 C 3374.26,3560.00 3397.22,3560.00 3420.17,3560.00 C 3443.12,3560.00 3466.08,3560.00 3489.03,3560.00 C 3511.99,3560.00 3534.94,3560.00 3557.89,3560.00 C 3580.85,3560.00 3603.80,3560.00 3626.76,3560.00 C 3649.71,3560.00 3672.66,3560.00 3695.62,3560.00 C 3718.57,3560.00 3741.53,3560.00 3764.48,3560.00 C 3787.43,3560.00 3810.39,3560.00 3833.34,3560.00 C 3855.01,3558.71 3854.00,3536.16 3853.00,3513.62 C 3852.00,3491.08 3851.00,3468.55 3850.00,3446.01 C 3849.00,3423.46 3847.99,3400.93 3845.99,3378.80 C 3845.00,3356.26 3843.01,3334.13 3841.99,3311.60 C 3839.99,3289.47 3838.00,3267.34 3835.99,3245.22 C 3834.00,3223.09 3831.01,3201.38 3829.99,3178.85 C 3826.01,3157.54 3822.89,3135.88 3818.03,3114.94 C 3813.01,3094.06 3806.94,3073.62 3799.02,3053.95 C 3790.61,3034.48 3777.99,3016.75 3764.00,2999.59 C 3748.28,2984.38 3731.28,2970.01 3713.30,2958.01 C 3695.52,2945.52 3677.24,2934.22 3658.52,2924.00 C 3639.79,2913.80 3620.89,2904.02 3602.91,2892.01 C 3584.70,2880.56 3566.08,2870.10 3546.93,2860.90 C 3527.76,2851.78 3528.48,2838.38 3546.71,2827.00 C 3565.08,2815.91 3583.06,2803.91 3600.25,2790.00 C 3617.23,2777.00 3633.98,2762.02 3649.80,2746.20 C 3665.32,2729.67 3680.74,2714.28 3695.79,2698.15 C 3710.01,2681.08 3723.43,2663.68 3736.03,2645.95 C 3746.63,2627.39 3756.37,2608.47 3765.66,2589.36 C 3774.02,2569.87 3781.12,2549.86 3789.61,2530.42 C 3798.04,2510.96 3805.82,2491.22 3812.94,2471.22 C 3824.29,2454.76 3844.32,2447.70 3863.65,2438.95 C 3883.29,2430.94 3903.37,2424.00 3922.13,2413.88 C 3939.52,2400.44 3957.73,2388.99 3976.67,2379.31 C 3995.77,2370.00 4014.46,2359.71 4032.99,2349.02 C 4051.79,2339.00 4070.19,2327.99 4088.47,2316.71 C 4106.10,2303.85 4123.73,2291.01 4140.92,2277.09 C 4158.04,2263.02 4175.14,2248.86 4191.66,2233.35 C 4207.18,2216.82 4222.70,2200.29 4237.52,2183.48 C 4251.73,2166.41 4264.21,2148.62 4276.41,2130.72 C 4286.18,2111.81 4294.66,2092.37 4299.95,2071.61 C 4301.00,2049.92 4293.11,2030.23 4276.71,2016.00 C 4256.66,2009.00 4234.95,2005.98 4212.40,2006.99 C 4190.28,2009.01 4168.98,2013.00 4148.09,2017.98 C 4127.72,2024.23 4107.69,2031.29 4087.96,2039.06 C 4068.50,2047.49 4048.75,2055.23 4029.43,2064.00 C 4010.14,2072.86 3990.17,2080.05 3968.84,2083.99 C 3947.40,2087.62 3926.74,2084.84 3918.00,2065.44 C 3917.80,2043.23 3920.04,2021.21 3923.06,1999.51 C 3925.99,1977.77 3929.01,1956.06 3933.01,1934.76 C 3936.69,1913.34 3940.89,1892.12 3944.01,1870.46 C 3947.16,1848.81 3950.01,1827.04 3953.00,1805.32 C 3956.00,1783.61 3958.00,1761.48 3960.00,1739.36 C 3961.00,1716.82 3962.05,1694.30 3962.00,1671.33 C 3961.99,1649.20 3962.00,1627.07 3962.00,1604.12 C 3958.60,1582.58 3952.06,1562.33 3944.49,1542.51 C 3937.00,1522.66 3926.86,1503.91 3915.73,1485.56 C 3904.31,1467.34 3893.08,1449.04 3878.23,1432.23 C 3862.71,1415.71 3847.18,1399.18 3830.95,1382.95 C 3814.44,1367.41 3798.23,1351.13 3781.38,1336.39 C 3764.52,1321.67 3747.65,1306.99 3730.31,1293.44 C 3713.27,1279.15 3695.55,1266.51 3677.81,1253.92 C 3659.83,1241.92 3641.82,1229.99 3623.41,1219.01 C 3604.99,1208.06 3586.15,1198.13 3566.99,1188.98 C 3546.92,1182.01 3526.43,1176.07 3506.00,1169.97 C 3485.11,1164.98 3464.16,1160.15 3442.93,1155.99 C 3421.45,1152.44 3399.92,1148.98 3377.85,1146.87 C 3356.08,1144.00 3333.51,1143.06 3311.00,1142.00 " fill="none" stroke="black" stroke-width="2" /></svg>