<?xml version="1.0" encoding="utf-8" ?>
<svg baseProfile="full" height="3561" version="1.1" width="6573" xmlns="http://www.w3.org/2000/svg" xmlns:ev="http://www.w3.org/2001/xml-events" xmlns:xlink="http://www.w3.org/1999/xlink"><defs /><path d="M 3195.00,1519.00 C 3183.61,1532.27 3176.00,1548.27 3168.94,1564.50 C 3162.88,1581.15 3156.50,1597.66 3149.19,1613.79 C 3142.76,1630.28 3136.95,1647.03 3131.05,1663.74 C 3124.03,1679.99 3118.23,1696.75 3113.02,1713.74 C 3108.12,1730.87 3105.01,1748.74 3090.87,1742.92 C 3076.50,1731.36 3061.77,1720.68 3047.04,1710.01 C 3032.27,1699.40 3017.56,1688.69 3002.86,1677.93 C 2988.23,1667.00 2973.63,1656.00 2959.02,1645.03 C 2944.30,1634.30 2929.59,1623.59 2914.87,1612.88 C 2900.13,1602.20 2883.14,1601.02 2877.01,1617.54 C 2875.01,1635.87 2872.99,1654.19 2869.93,1672.08 C 2865.99,1689.60 2861.99,1707.10 2859.02,1725.03 C 2856.01,1742.93 2852.39,1760.59 2850.01,1778.76 C 2848.00,1797.09 2842.30,1809.28 2826.11,1802.12 C 2809.89,1795.03 2793.64,1788.00 2777.39,1781.00 C 2761.14,1773.98 2744.92,1766.89 2728.73,1759.75 C 2712.55,1752.56 2696.37,1745.36 2680.19,1738.19 C 2663.98,1731.06 2646.93,1726.01 2640.00,1740.58 C 2639.98,1758.91 2643.59,1776.57 2645.96,1794.75 C 2650.04,1812.21 2653.83,1829.80 2657.44,1847.46 C 2661.98,1864.73 2665.94,1882.25 2669.95,1899.74 C 2675.04,1916.79 2679.05,1934.29 2683.00,1951.81 C 2686.94,1969.33 2690.87,1986.86 2691.47,2004.50 C 2686.07,2021.42 2681.00,2038.47 2677.04,2055.99 C 2674.09,2073.92 2671.00,2091.80 2668.01,2109.72 C 2665.24,2127.73 2662.31,2145.67 2660.01,2163.87 C 2655.94,2181.34 2653.00,2199.28 2651.26,2217.71 C 2651.02,2236.77 2649.98,2255.50 2649.00,2274.25 C 2647.00,2292.57 2645.99,2311.31 2644.00,2329.64 C 2643.43,2348.56 2643.00,2367.54 2643.00,2386.70 C 2643.00,2405.85 2644.00,2424.59 2647.00,2442.51 C 2648.98,2460.84 2652.00,2478.75 2652.14,2495.00 C 2640.02,2509.03 2630.03,2524.04 2621.97,2539.86 C 2616.99,2556.95 2612.04,2574.06 2607.94,2591.52 C 2606.00,2609.87 2606.00,2629.03 2606.00,2648.18 C 2606.22,2667.25 2608.47,2685.47 2610.99,2703.58 C 2613.94,2721.52 2619.06,2738.55 2624.45,2755.47 C 2630.94,2771.94 2637.99,2788.18 2647.41,2803.43 C 2656.73,2818.73 2666.66,2833.77 2678.14,2848.21 C 2691.69,2860.54 2705.59,2871.60 2722.65,2876.67 C 2739.99,2881.05 2756.56,2887.47 2761.95,2904.38 C 2768.00,2921.03 2774.48,2937.50 2780.92,2953.98 C 2787.05,2970.60 2793.90,2986.92 2800.97,3003.15 C 2808.95,3019.00 2818.00,3034.41 2826.17,3050.18 C 2835.00,3065.67 2843.99,3081.11 2853.25,3096.43 C 2864.00,3111.13 2873.98,3126.15 2883.99,3141.16 C 2893.00,3156.59 2903.45,3171.42 2914.07,3186.21 C 2926.57,3199.57 2940.10,3213.14 2954.48,3224.66 C 2968.62,3236.78 2983.54,3247.00 2997.10,3259.10 C 3011.56,3270.43 3025.66,3282.64 3040.53,3292.99 C 3055.63,3302.78 3063.64,3313.48 3048.43,3323.00 C 3033.26,3332.61 3017.97,3341.96 3002.40,3350.61 C 2986.83,3359.26 2971.29,3367.99 2956.81,3379.27 C 2942.95,3392.06 2930.62,3405.52 2919.10,3419.90 C 2909.00,3434.88 2900.50,3450.51 2893.99,3466.97 C 2889.04,3484.08 2885.06,3501.58 2880.01,3518.65 C 2877.06,3536.58 2872.23,3553.74 2884.80,3560.00 C 2903.95,3560.00 2923.11,3560.00 2942.27,3560.00 C 2961.42,3560.00 2980.58,3560.00 2999.73,3560.00 C 3018.89,3560.00 3038.04,3560.00 3057.20,3560.00 C 3076.36,3560.00 3095.51,3560.00 3114.67,3560.00 C 3133.82,3560.00 3152.98,3560.00 3172.14,3560.00 C 3191.29,3560.00 3210.45,3560.00 3229.60,3560.00 C 3248.76,3560.00 3267.92,3560.00 3287.07,3560.00 C 3306.23,3560.00 3325.38,3560.00 3344.54,3560.00 C 3363.70,3560.00 3382.85,3560.00 3402.01,3560.00 C 3421.16,3560.00 3440.32,3560.00 3459.48,3560.00 C 3478.63,3560.00 3497.79,3560.00 3516.94,3560.00 C 3536.10,3560.00 3555.25,3560.00 3574.41,3560.00 C 3593.57,3560.00 3612.72,3560.00 3631.88,3560.00 C 3651.03,3560.00 3670.19,3560.00 3689.35,3560.00 C 3708.50,3560.00 3727.66,3560.00 3743.99,3557.19 C 3739.79,3539.77 3734.00,3523.02 3728.23,3506.25 C 3721.80,3489.76 3714.60,3473.59 3706.71,3457.70 C 3698.12,3442.10 3688.99,3426.72 3678.08,3412.09 C 3663.97,3399.93 3648.91,3390.02 3633.93,3379.96 C 3619.25,3369.14 3603.92,3359.89 3588.61,3350.63 C 3573.35,3341.21 3557.98,3332.06 3542.66,3322.81 C 3527.36,3313.51 3533.86,3302.00 3548.87,3291.99 C 3564.19,3282.73 3579.55,3273.58 3593.94,3262.05 C 3608.33,3250.55 3622.70,3240.41 3636.50,3227.48 C 3649.64,3214.38 3663.23,3200.84 3676.01,3186.97 C 3688.82,3174.30 3701.16,3160.84 3713.36,3146.74 C 3724.05,3132.01 3735.52,3117.61 3744.66,3102.23 C 3753.00,3086.53 3761.94,3071.08 3768.98,3054.84 C 3776.26,3038.70 3782.09,3021.96 3789.00,3005.66 C 3796.00,2989.41 3803.03,2973.16 3808.94,2956.46 C 3815.87,2940.17 3821.02,2923.15 3827.39,2906.63 C 3843.40,2899.06 3860.03,2892.97 3876.50,2887.50 C 3890.96,2880.02 3905.98,2869.99 3920.57,2859.00 C 3933.83,2846.16 3946.18,2832.71 3959.10,2818.90 C 3969.65,2807.22 3978.02,2797.60 3988.00,2782.58 C 3996.17,2766.81 4001.21,2749.74 4005.00,2732.15 C 4008.00,2714.24 4010.00,2695.91 4009.95,2677.61 C 4011.00,2658.84 4010.01,2640.92 4008.42,2622.43 C 4006.01,2604.27 4002.06,2586.75 3996.81,2569.77 C 3989.61,2553.59 3979.49,2538.63 3967.87,2524.88 C 3954.03,2512.05 3947.02,2497.80 3950.99,2480.29 C 3954.00,2462.38 3957.00,2444.46 3959.00,2426.14 C 3960.00,2407.40 3962.00,2389.07 3964.00,2370.74 C 3963.73,2351.70 3963.48,2333.48 3964.00,2314.93 C 3963.58,2296.43 3963.00,2277.86 3961.00,2259.53 C 3959.13,2241.15 3957.64,2222.61 3954.00,2204.97 C 3949.94,2187.49 3947.07,2169.53 3943.77,2151.74 C 3938.94,2134.58 3934.99,2117.06 3930.00,2099.97 C 3924.91,2082.92 3919.14,2066.16 3913.37,2049.39 C 3909.02,2032.04 3905.06,2014.52 3899.93,1997.49 C 3895.06,1980.35 3893.00,1962.05 3892.00,1943.31 C 3891.00,1924.57 3890.57,1905.59 3890.06,1886.64 C 3889.00,1867.93 3888.00,1849.19 3887.00,1830.44 C 3886.00,1811.70 3885.70,1792.67 3885.00,1773.80 C 3884.00,1755.06 3883.00,1736.32 3882.00,1717.58 C 3881.00,1698.84 3881.06,1679.66 3880.00,1660.94 C 3879.00,1642.20 3878.00,1623.46 3867.96,1612.00 C 3850.86,1616.97 3835.60,1626.38 3821.18,1637.80 C 3806.24,1647.99 3791.23,1658.00 3776.50,1668.67 C 3761.72,1679.25 3747.31,1690.69 3734.29,1702.70 C 3721.33,1714.82 3707.16,1726.86 3693.61,1740.39 C 3680.77,1754.23 3666.94,1767.09 3658.06,1754.63 C 3652.00,1737.98 3645.95,1721.33 3640.44,1704.45 C 3634.71,1687.67 3628.91,1670.92 3622.96,1654.23 C 3616.93,1637.57 3611.02,1620.86 3603.05,1605.01 C 3595.14,1589.13 3588.01,1572.93 3580.69,1556.80 C 3564.43,1554.61 3550.28,1566.71 3536.86,1579.14 C 3524.02,1592.98 3511.19,1606.82 3497.35,1619.66 C 3484.67,1632.46 3471.91,1645.09 3458.78,1658.23 C 3445.94,1672.05 3433.80,1686.18 3421.66,1700.31 C 3409.57,1714.46 3397.83,1727.88 3387.15,1713.10 C 3377.14,1698.09 3366.37,1683.40 3354.17,1669.29 C 3342.85,1654.83 3332.00,1640.17 3319.99,1625.99 C 3307.15,1612.15 3295.01,1598.02 3282.16,1584.19 C 3269.34,1570.34 3255.80,1556.80 3242.93,1542.97 C 3229.12,1530.12 3215.16,1519.00 3196.00,1519.00 " fill="none" stroke="black" stroke-width="2" /></svg>