<?xml version="1.0" encoding="utf-8" ?>
<svg baseProfile="full" height="3561" version="1.1" width="6573" xmlns="http://www.w3.org/2000/svg" xmlns:ev="http://www.w3.org/2001/xml-events" xmlns:xlink="http://www.w3.org/1999/xlink"><defs /><path d="M 3237.00,1001.00 C 3216.64,1004.33 3196.81,1008.95 3177.60,1015.07 C 3158.75,1022.05 3140.51,1030.49 3123.07,1040.89 C 3106.54,1053.46 3090.58,1067.42 3075.91,1083.08 C 3057.88,1077.98 3038.18,1073.03 3018.08,1069.08 C 2996.78,1068.00 2975.04,1068.00 2953.72,1069.01 C 2933.66,1073.06 2913.98,1078.04 2895.53,1086.00 C 2877.33,1094.53 2859.93,1105.03 2843.39,1117.58 C 2827.44,1131.56 2812.76,1147.22 2798.80,1163.18 C 2785.00,1179.20 2773.02,1195.99 2760.02,1209.99 C 2738.68,1209.00 2717.36,1210.00 2696.89,1213.08 C 2678.02,1220.02 2660.63,1230.53 2644.34,1243.66 C 2629.69,1259.34 2616.31,1275.54 2605.37,1292.75 C 2595.58,1310.43 2587.00,1328.62 2580.07,1347.49 C 2574.06,1366.74 2568.94,1386.37 2565.97,1406.88 C 2565.00,1428.22 2564.00,1449.54 2565.00,1470.87 C 2568.00,1491.37 2571.94,1511.48 2578.05,1530.69 C 2584.01,1549.96 2592.25,1568.29 2601.00,1586.41 C 2610.19,1604.34 2621.42,1621.43 2611.03,1634.99 C 2595.07,1648.93 2581.90,1665.22 2570.59,1682.28 C 2561.04,1700.06 2552.68,1718.34 2545.81,1737.23 C 2540.98,1756.98 2537.00,1777.07 2535.00,1797.98 C 2534.00,1819.31 2536.00,1840.22 2539.95,1860.33 C 2546.07,1879.53 2553.27,1898.29 2562.28,1916.30 C 2572.83,1933.67 2583.99,1950.79 2597.81,1966.81 C 2612.47,1982.48 2628.43,1996.43 2644.14,2011.00 C 2650.02,2028.99 2631.59,2037.00 2613.11,2044.88 C 2595.69,2055.31 2582.43,2071.56 2574.02,2089.82 C 2567.99,2109.06 2561.80,2128.24 2557.74,2148.30 C 2555.00,2168.90 2555.01,2189.82 2555.01,2209.90 C 2559.02,2229.98 2565.00,2249.24 2572.02,2268.08 C 2581.01,2286.09 2589.35,2304.38 2601.19,2321.21 C 2612.24,2338.38 2625.01,2354.83 2636.83,2371.67 C 2651.26,2386.28 2668.68,2396.70 2687.80,2403.04 C 2706.75,2409.78 2726.74,2414.01 2745.70,2420.72 C 2755.97,2435.85 2763.00,2454.69 2770.35,2473.38 C 2777.93,2491.98 2784.86,2510.86 2792.44,2529.45 C 2801.00,2547.65 2811.16,2565.18 2820.93,2582.88 C 2830.62,2600.60 2840.23,2618.37 2851.35,2635.50 C 2863.01,2652.41 2874.43,2669.43 2885.01,2686.78 C 2896.99,2703.56 2909.30,2720.20 2922.78,2735.78 C 2938.49,2750.32 2954.70,2763.69 2970.95,2776.94 C 2987.07,2789.08 3002.71,2803.83 3019.29,2816.29 C 3035.81,2828.90 3053.34,2839.15 3036.78,2846.96 C 3017.97,2854.04 2999.50,2861.94 2981.09,2869.98 C 2962.76,2878.22 2944.26,2886.04 2925.37,2892.94 C 2906.53,2899.93 2887.79,2907.18 2869.29,2915.00 C 2851.28,2924.01 2834.09,2935.00 2817.81,2948.19 C 2801.85,2962.15 2786.17,2976.77 2771.42,2992.44 C 2758.96,3009.02 2748.56,3026.45 2740.22,3044.74 C 2732.03,3063.09 2724.96,3081.90 2720.27,3101.70 C 2717.94,3122.48 2715.99,3142.59 2713.00,3163.08 C 2712.00,3184.41 2710.00,3205.32 2708.00,3226.24 C 2706.00,3247.15 2704.01,3268.07 2702.99,3289.39 C 2701.01,3310.31 2700.00,3331.63 2699.00,3352.96 C 2698.00,3374.28 2697.01,3395.62 2697.00,3417.35 C 2696.00,3438.68 2696.00,3460.42 2695.00,3481.75 C 2695.00,3503.49 2695.00,3525.23 2695.00,3546.97 C 2703.72,3560.00 2725.46,3560.00 2747.20,3560.00 C 2768.94,3560.00 2790.68,3560.00 2812.42,3560.00 C 2834.16,3560.00 2855.90,3560.00 2877.64,3560.00 C 2899.39,3560.00 2921.13,3560.00 2942.87,3560.00 C 2964.61,3560.00 2986.35,3560.00 3008.09,3560.00 C 3029.83,3560.00 3051.58,3560.00 3073.32,3560.00 C 3095.06,3560.00 3116.80,3560.00 3138.54,3560.00 C 3160.28,3560.00 3182.02,3560.00 3203.76,3560.00 C 3225.51,3560.00 3247.25,3560.00 3268.99,3560.00 C 3290.73,3560.00 3312.47,3560.00 3334.21,3560.00 C 3355.95,3560.00 3377.70,3560.00 3399.44,3560.00 C 3421.18,3560.00 3442.92,3560.00 3464.66,3560.00 C 3486.40,3560.00 3508.14,3560.00 3529.88,3560.00 C 3551.63,3560.00 3573.37,3560.00 3595.11,3560.00 C 3616.85,3560.00 3638.59,3560.00 3660.33,3560.00 C 3682.07,3560.00 3703.81,3560.00 3725.56,3560.00 C 3747.30,3560.00 3769.04,3560.00 3790.78,3560.00 C 3812.52,3560.00 3834.26,3560.00 3855.03,3559.02 C 3854.00,3537.67 3853.00,3516.34 3852.00,3495.01 C 3851.00,3473.69 3850.00,3452.36 3849.00,3431.03 C 3848.00,3409.71 3847.00,3388.38 3845.99,3367.05 C 3844.00,3346.14 3842.99,3324.81 3841.00,3303.90 C 3839.00,3282.99 3836.97,3262.09 3834.96,3241.18 C 3833.01,3220.24 3831.00,3199.33 3830.02,3178.00 C 3825.98,3157.93 3823.00,3137.43 3819.01,3117.34 C 3813.80,3097.75 3808.01,3078.41 3802.04,3059.14 C 3793.82,3040.81 3782.60,3023.71 3770.14,3007.13 C 3755.85,2991.89 3740.64,2977.61 3724.08,2965.09 C 3707.25,2953.23 3690.16,2942.01 3672.73,2931.60 C 3654.98,2921.97 3637.26,2912.24 3619.22,2903.31 C 3602.17,2892.00 3584.99,2880.98 3567.38,2871.00 C 3549.37,2862.00 3531.38,2852.95 3524.32,2841.40 C 3541.42,2829.99 3559.03,2820.00 3576.15,2808.85 C 3592.70,2796.31 3609.03,2783.72 3624.78,2770.22 C 3639.75,2755.27 3655.41,2740.59 3670.07,2724.92 C 3684.72,2710.42 3698.87,2695.13 3712.13,2678.87 C 3724.01,2662.06 3736.51,2645.49 3746.21,2627.77 C 3755.93,2610.05 3764.23,2591.75 3773.06,2573.67 C 3780.04,2554.82 3787.06,2535.98 3795.22,2517.62 C 3802.93,2499.07 3810.00,2480.26 3816.02,2461.01 C 3833.45,2452.06 3851.90,2444.11 3870.49,2436.50 C 3889.11,2428.97 3907.95,2421.97 3925.44,2411.70 C 3941.61,2398.25 3958.49,2386.51 3975.65,2375.47 C 3990.57,2360.42 4002.42,2343.59 4011.40,2325.56 C 4019.00,2306.97 4025.05,2287.74 4027.99,2267.21 C 4031.00,2246.72 4035.06,2226.66 4037.05,2205.74 C 4037.00,2184.81 4034.20,2164.23 4028.94,2144.66 C 4022.58,2125.56 4014.00,2107.37 4005.23,2089.26 C 3995.42,2071.58 4003.72,2055.28 4017.65,2039.32 C 4029.99,2022.69 4040.03,2005.10 4049.01,1987.08 C 4055.12,1967.87 4059.00,1947.73 4060.00,1926.41 C 4057.99,1905.50 4053.03,1885.81 4046.03,1866.97 C 4037.70,1848.68 4027.98,1830.97 4016.13,1814.13 C 4003.52,1797.62 4012.13,1779.87 4021.86,1762.16 C 4029.44,1743.56 4036.99,1724.95 4042.94,1705.67 C 4048.02,1686.03 4052.78,1666.26 4055.00,1645.44 C 4056.00,1624.11 4055.56,1602.55 4052.18,1582.21 C 4046.94,1562.64 4041.06,1543.33 4032.23,1525.25 C 4023.01,1507.33 4012.83,1489.80 4001.02,1472.95 C 3987.72,1456.72 3972.06,1442.04 3954.89,1431.01 C 3952.00,1414.05 3955.06,1393.58 3956.00,1372.22 C 3956.00,1350.48 3955.02,1329.15 3952.00,1308.66 C 3948.40,1288.41 3943.02,1268.90 3935.96,1250.08 C 3926.22,1232.37 3915.87,1214.92 3903.36,1198.36 C 3889.40,1182.40 3874.02,1167.03 3857.73,1153.87 C 3840.90,1142.01 3822.93,1132.91 3804.62,1124.63 C 3786.02,1117.05 3765.97,1112.96 3745.03,1111.02 C 3724.13,1111.00 3703.21,1112.99 3684.96,1109.98 C 3671.72,1093.72 3656.76,1078.76 3640.72,1065.00 C 3623.96,1052.97 3606.80,1041.90 3589.11,1032.12 C 3570.75,1023.96 3551.06,1019.03 3530.57,1015.99 C 3509.24,1015.00 3487.48,1014.94 3467.01,1018.02 C 3447.31,1022.94 3428.08,1029.01 3409.24,1036.01 C 3391.16,1044.85 3373.20,1042.01 3355.72,1031.74 C 3337.70,1022.74 3319.12,1015.11 3299.92,1008.97 C 3280.26,1003.96 3259.74,1001.00 3238.00,1001.00 " fill="none" stroke="black" stroke-width="2" /></svg>