<?xml version="1.0" encoding="utf-8" ?>
<svg baseProfile="full" height="3561" version="1.1" width="6573" xmlns="http://www.w3.org/2000/svg" xmlns:ev="http://www.w3.org/2001/xml-events" xmlns:xlink="http://www.w3.org/1999/xlink"><defs /><path d="M 3229.00,977.00 C 3207.73,982.24 3188.24,991.78 3169.04,1002.01 C 3152.36,1016.75 3136.52,1032.43 3114.98,1037.02 C 3093.43,1041.58 3072.26,1047.05 3051.30,1053.05 C 3030.80,1060.16 3012.44,1071.00 2992.31,1078.99 C 2972.20,1087.03 2952.48,1096.00 2933.15,1105.93 C 2913.57,1115.26 2894.66,1126.18 2876.33,1138.52 C 2858.63,1152.38 2841.66,1168.01 2824.89,1184.11 C 2808.07,1200.03 2792.86,1217.13 2778.51,1234.63 C 2763.94,1252.03 2750.95,1270.09 2737.85,1288.10 C 2725.43,1306.40 2714.75,1325.42 2704.00,1344.40 C 2694.92,1364.08 2686.11,1383.87 2678.99,1404.37 C 2672.79,1425.24 2666.99,1446.27 2662.23,1467.74 C 2659.03,1489.85 2656.01,1512.04 2654.01,1534.66 C 2654.05,1557.24 2654.99,1580.29 2656.99,1602.90 C 2659.97,1625.11 2662.52,1647.49 2665.00,1669.90 C 2666.94,1692.54 2670.05,1714.69 2672.99,1736.92 C 2673.80,1758.20 2654.59,1768.39 2633.91,1775.08 C 2614.12,1783.89 2594.05,1792.01 2574.33,1801.00 C 2554.19,1808.95 2533.47,1815.52 2512.29,1821.00 C 2490.91,1825.96 2469.96,1831.97 2449.03,1838.03 C 2428.08,1844.04 2406.68,1848.97 2384.47,1851.94 C 2363.55,1858.00 2341.76,1862.00 2319.99,1866.03 C 2298.58,1870.94 2277.68,1877.06 2256.72,1883.05 C 2235.33,1887.99 2213.96,1893.00 2192.62,1898.06 C 2171.20,1902.95 2150.77,1910.20 2131.51,1920.30 C 2114.10,1934.88 2103.92,1954.11 2100.00,1975.92 C 2105.00,1997.29 2117.55,2015.51 2135.33,2029.17 C 2155.53,2037.00 2176.92,2032.07 2199.48,2029.94 C 2222.11,2027.99 2244.31,2024.98 2266.51,2021.99 C 2288.73,2019.05 2310.63,2015.34 2333.11,2013.01 C 2355.72,2011.00 2378.24,2008.80 2400.50,2005.93 C 2423.14,2004.01 2445.75,2002.00 2468.35,1999.98 C 2491.40,1999.05 2513.99,1997.00 2537.01,1995.97 C 2559.63,1993.99 2582.23,1991.96 2605.26,1990.99 C 2626.22,1995.01 2643.29,2010.39 2649.57,2029.38 C 2629.74,2038.06 2609.69,2046.26 2591.67,2059.33 C 2579.43,2077.70 2570.94,2097.63 2563.96,2118.17 C 2559.06,2139.59 2554.95,2161.32 2553.95,2184.39 C 2554.98,2205.74 2559.00,2227.52 2564.64,2248.62 C 2572.00,2269.02 2580.96,2288.74 2591.83,2307.68 C 2604.86,2325.72 2617.13,2344.08 2629.52,2362.39 C 2643.46,2379.47 2661.22,2393.20 2681.45,2400.94 C 2701.98,2407.96 2722.95,2413.94 2743.91,2419.92 C 2755.94,2435.44 2763.69,2455.67 2771.05,2476.06 C 2779.12,2496.16 2786.95,2516.36 2795.30,2536.33 C 2805.00,2555.76 2816.06,2574.62 2826.66,2593.66 C 2837.99,2612.41 2849.01,2631.29 2861.66,2649.49 C 2873.10,2668.19 2885.01,2686.70 2897.84,2704.82 C 2910.81,2722.93 2926.31,2739.33 2943.46,2754.51 C 2960.62,2769.68 2978.64,2782.78 2995.42,2797.42 C 3013.16,2811.18 3030.88,2825.00 3049.35,2837.01 C 3039.50,2845.93 3019.42,2854.06 2999.25,2861.95 C 2979.59,2871.07 2959.86,2880.03 2939.74,2888.05 C 2919.62,2896.07 2899.04,2902.97 2878.96,2911.06 C 2859.16,2919.85 2840.58,2931.59 2822.28,2943.99 C 2805.37,2959.77 2788.51,2975.64 2772.29,2991.70 C 2758.44,3009.39 2747.65,3028.37 2739.00,3048.22 C 2730.04,3067.95 2722.93,3088.45 2720.05,3110.69 C 2715.01,3132.05 2714.00,3154.24 2712.00,3176.85 C 2711.01,3199.88 2707.99,3222.07 2706.00,3244.69 C 2704.00,3267.30 2703.06,3290.35 2701.00,3312.93 C 2700.00,3335.96 2699.00,3358.98 2698.00,3382.01 C 2697.00,3405.04 2696.70,3428.35 2696.00,3451.50 C 2695.31,3474.66 2695.00,3497.97 2695.00,3521.41 C 2695.00,3544.85 2703.29,3560.00 2726.73,3560.00 C 2750.17,3560.00 2773.61,3560.00 2797.05,3560.00 C 2820.49,3560.00 2843.92,3560.00 2867.36,3560.00 C 2890.80,3560.00 2914.24,3560.00 2937.68,3560.00 C 2961.12,3560.00 2984.56,3560.00 3008.00,3560.00 C 3031.44,3560.00 3054.88,3560.00 3078.32,3560.00 C 3101.76,3560.00 3125.20,3560.00 3148.64,3560.00 C 3172.08,3560.00 3195.52,3560.00 3218.96,3560.00 C 3242.40,3560.00 3265.84,3560.00 3289.28,3560.00 C 3312.72,3560.00 3336.16,3560.00 3359.60,3560.00 C 3383.04,3560.00 3406.48,3560.00 3429.92,3560.00 C 3453.36,3560.00 3476.80,3560.00 3500.24,3560.00 C 3523.68,3560.00 3547.12,3560.00 3570.56,3560.00 C 3594.00,3560.00 3617.44,3560.00 3640.88,3560.00 C 3664.32,3560.00 3687.76,3560.00 3711.20,3560.00 C 3734.64,3560.00 3758.08,3560.00 3781.52,3560.00 C 3804.96,3560.00 3828.40,3560.00 3851.82,3559.98 C 3854.00,3540.14 3853.00,3517.11 3852.00,3494.08 C 3851.00,3471.06 3850.00,3448.03 3849.00,3425.01 C 3847.99,3401.99 3845.95,3379.39 3845.00,3356.35 C 3843.01,3333.73 3842.05,3310.69 3840.01,3288.09 C 3838.00,3265.49 3835.91,3242.91 3833.00,3220.68 C 3831.00,3198.07 3828.94,3175.48 3826.04,3153.24 C 3822.06,3131.45 3816.35,3110.37 3811.83,3088.81 C 3805.14,3068.14 3796.99,3048.07 3786.91,3028.81 C 3773.79,3010.81 3758.49,2994.00 3741.88,2978.93 C 3724.15,2965.15 3705.81,2952.83 3687.68,2940.01 C 3668.52,2929.69 3649.50,2919.00 3630.21,2908.99 C 3611.32,2898.01 3592.90,2885.89 3574.31,2874.17 C 3555.07,2864.04 3535.35,2855.06 3522.92,2843.99 C 3540.29,2830.75 3559.20,2819.81 3577.49,2807.37 C 3595.60,2794.53 3612.28,2779.61 3629.73,2765.15 C 3646.21,2749.77 3662.12,2732.93 3678.68,2717.60 C 3694.00,2701.01 3708.41,2683.54 3721.39,2665.48 C 3735.01,2647.68 3745.99,2628.79 3756.01,2609.50 C 3765.15,2589.84 3774.04,2570.09 3781.32,2549.66 C 3790.00,2529.82 3798.94,2510.08 3806.27,2489.68 C 3814.07,2469.47 3826.69,2454.01 3846.86,2446.12 C 3866.93,2437.98 3887.07,2430.01 3907.19,2422.01 C 3926.06,2410.96 3943.82,2397.25 3961.77,2384.01 C 3979.87,2371.12 3994.94,2354.51 4006.15,2335.71 C 4015.03,2315.95 4022.41,2295.57 4026.25,2273.72 C 4030.11,2251.88 4034.00,2230.05 4035.94,2207.41 C 4037.00,2185.24 4033.96,2163.06 4028.77,2141.77 C 4020.71,2121.67 4008.67,2104.00 3995.99,2086.78 C 3984.21,2068.23 3968.35,2051.35 3952.00,2035.27 C 3941.42,2016.56 3943.01,1995.43 3945.01,1972.83 C 3946.00,1949.80 3947.01,1926.78 3949.00,1904.16 C 3950.01,1881.14 3952.00,1858.53 3953.00,1835.50 C 3954.00,1812.47 3953.00,1789.45 3951.93,1766.45 C 3952.01,1742.98 3951.00,1719.95 3950.01,1696.93 C 3949.00,1673.90 3947.90,1650.92 3946.00,1628.27 C 3943.99,1605.66 3941.30,1583.33 3939.00,1560.85 C 3936.46,1538.46 3933.99,1516.04 3929.95,1494.28 C 3927.01,1472.05 3923.00,1450.28 3918.66,1428.63 C 3914.02,1407.12 3908.96,1385.77 3904.00,1364.39 C 3898.00,1343.43 3892.07,1322.45 3884.96,1301.95 C 3877.00,1281.81 3868.99,1261.69 3860.70,1241.68 C 3851.17,1222.19 3841.71,1202.67 3832.00,1183.25 C 3820.43,1164.60 3808.90,1145.94 3795.94,1127.87 C 3778.95,1115.02 3761.26,1101.15 3742.91,1088.86 C 3724.38,1077.01 3705.50,1066.00 3685.84,1056.87 C 3665.74,1048.79 3645.56,1040.93 3624.55,1035.06 C 3603.65,1028.94 3582.25,1024.00 3560.48,1019.99 C 3538.71,1015.95 3516.52,1012.94 3493.88,1010.99 C 3471.25,1009.05 3448.66,1007.00 3425.22,1007.00 C 3402.19,1007.99 3379.17,1009.00 3356.14,1010.00 C 3333.12,1011.00 3313.85,1000.93 3294.97,989.93 C 3274.80,982.03 3253.03,977.98 3230.00,977.00 " fill="none" stroke="black" stroke-width="2" /></svg>