<?xml version="1.0" encoding="utf-8" ?>
<svg baseProfile="full" height="3561" version="1.1" width="6573" xmlns="http://www.w3.org/2000/svg" xmlns:ev="http://www.w3.org/2001/xml-events" xmlns:xlink="http://www.w3.org/1999/xlink"><defs /><path d="M 3878.00,1160.00 C 3855.64,1162.00 3833.69,1165.00 3811.75,1168.01 C 3790.20,1171.96 3769.37,1177.66 3748.56,1183.41 C 3728.11,1190.02 3707.86,1197.12 3688.35,1206.00 C 3669.83,1217.27 3651.31,1228.54 3632.33,1233.31 C 3612.41,1225.39 3591.90,1218.93 3571.16,1213.02 C 3550.07,1207.96 3528.54,1203.94 3505.74,1203.00 C 3482.55,1203.00 3460.19,1205.00 3438.27,1208.05 C 3416.69,1211.94 3396.00,1217.98 3375.33,1224.05 C 3354.58,1229.94 3334.51,1237.48 3315.19,1246.83 C 3296.70,1258.17 3279.20,1252.11 3260.71,1240.75 C 3241.13,1232.04 3220.87,1224.97 3199.30,1221.05 C 3177.56,1217.56 3154.61,1217.00 3131.88,1218.11 C 3110.50,1222.49 3089.60,1228.00 3068.90,1234.03 C 3048.17,1239.95 3027.93,1247.07 3008.32,1255.72 C 2989.28,1265.74 2970.48,1276.34 2952.12,1288.00 C 2934.99,1289.74 2919.83,1272.83 2904.14,1256.14 C 2887.45,1240.45 2870.17,1226.19 2852.35,1213.21 C 2833.80,1202.00 2814.76,1192.01 2794.92,1183.92 C 2775.01,1176.00 2754.51,1169.50 2733.18,1165.01 C 2711.24,1162.00 2688.88,1162.00 2666.54,1164.06 C 2644.99,1168.02 2624.28,1174.00 2601.91,1175.97 C 2580.56,1180.42 2559.76,1186.19 2539.80,1193.97 C 2520.54,1203.46 2501.76,1214.11 2483.91,1226.99 C 2466.38,1240.66 2449.68,1256.32 2433.30,1272.73 C 2419.00,1290.00 2405.33,1307.52 2393.37,1325.75 C 2381.85,1344.17 2371.10,1362.91 2361.78,1382.24 C 2352.99,1401.79 2344.95,1421.64 2338.03,1441.97 C 2332.22,1462.75 2327.88,1484.14 2324.05,1505.74 C 2321.01,1527.67 2319.00,1550.03 2319.00,1573.22 C 2319.99,1596.00 2322.01,1618.35 2325.98,1639.90 C 2331.03,1661.00 2337.53,1681.49 2345.39,1701.43 C 2354.07,1721.02 2364.08,1740.06 2375.39,1758.57 C 2389.11,1776.07 2404.07,1793.07 2420.76,1808.74 C 2438.46,1822.00 2456.76,1833.80 2475.80,1843.82 C 2495.60,1852.00 2515.63,1859.63 2536.16,1866.04 C 2556.88,1872.02 2577.56,1878.07 2598.69,1883.05 C 2620.24,1887.00 2639.00,1893.19 2639.00,1916.38 C 2639.00,1939.56 2640.22,1962.25 2643.18,1984.21 C 2647.00,2005.82 2651.04,2027.37 2632.13,2036.87 C 2612.31,2045.00 2594.07,2056.93 2581.00,2074.71 C 2571.96,2094.16 2565.98,2114.87 2560.00,2135.58 C 2555.99,2157.11 2554.00,2179.47 2554.03,2200.99 C 2557.70,2222.66 2563.00,2243.66 2570.00,2263.94 C 2578.49,2283.62 2588.64,2302.60 2600.77,2320.77 C 2612.90,2338.93 2625.81,2356.77 2638.92,2374.00 C 2654.92,2389.92 2674.37,2398.95 2695.05,2405.01 C 2715.34,2412.00 2736.34,2417.29 2754.06,2427.31 C 2761.06,2447.60 2768.02,2467.91 2775.87,2487.85 C 2783.06,2508.06 2791.71,2527.67 2800.95,2547.03 C 2811.76,2565.74 2821.79,2584.77 2832.00,2603.73 C 2843.24,2622.27 2855.99,2640.17 2867.45,2658.61 C 2879.83,2676.68 2890.34,2695.51 2904.03,2713.03 C 2917.94,2729.87 2933.58,2746.59 2950.83,2760.92 C 2968.47,2774.33 2985.63,2787.49 3002.25,2803.34 C 3019.84,2816.84 3037.69,2829.73 3052.79,2842.04 C 3032.37,2848.68 3012.45,2856.58 2992.75,2865.00 C 2973.21,2873.82 2953.38,2881.94 2933.66,2890.30 C 2913.69,2898.07 2893.39,2905.06 2873.63,2913.33 C 2854.36,2922.80 2835.89,2934.17 2818.30,2947.70 C 2801.32,2962.69 2784.63,2978.37 2769.62,2995.35 C 2756.05,3012.92 2745.98,3031.93 2737.41,3051.57 C 2729.00,3071.28 2721.94,3091.54 2719.01,3113.52 C 2715.00,3135.05 2713.01,3156.58 2709.94,3178.50 C 2708.00,3200.89 2706.00,3223.25 2704.00,3245.61 C 2701.97,3267.96 2701.00,3290.74 2700.00,3313.52 C 2698.01,3335.88 2697.00,3358.66 2696.00,3381.43 C 2695.00,3404.21 2693.99,3426.98 2693.00,3449.76 C 2691.94,3472.51 2692.00,3495.72 2691.00,3518.49 C 2689.96,3541.25 2694.45,3560.00 2717.65,3560.00 C 2740.84,3560.00 2764.03,3560.00 2787.21,3560.00 C 2810.40,3560.00 2833.59,3560.00 2856.78,3560.00 C 2879.97,3560.00 2903.16,3560.00 2926.35,3560.00 C 2949.54,3560.00 2972.73,3560.00 2995.92,3560.00 C 3019.11,3560.00 3042.30,3560.00 3065.49,3560.00 C 3088.67,3560.00 3111.86,3560.00 3135.05,3560.00 C 3158.24,3560.00 3181.43,3560.00 3204.62,3560.00 C 3227.81,3560.00 3251.00,3560.00 3274.19,3560.00 C 3297.38,3560.00 3320.57,3560.00 3343.76,3560.00 C 3366.94,3560.00 3390.13,3560.00 3413.32,3560.00 C 3436.51,3560.00 3459.70,3560.00 3482.89,3560.00 C 3506.08,3560.00 3529.27,3560.00 3552.46,3560.00 C 3575.65,3560.00 3598.84,3560.00 3622.03,3560.00 C 3645.22,3560.00 3668.40,3560.00 3691.59,3560.00 C 3714.78,3560.00 3737.97,3560.00 3761.16,3560.00 C 3784.35,3560.00 3807.54,3560.00 3824.00,3552.68 C 3826.00,3530.32 3826.00,3507.14 3825.00,3484.36 C 3825.59,3462.57 3825.00,3439.64 3826.00,3416.86 C 3826.00,3393.67 3827.00,3370.90 3827.99,3348.12 C 3829.00,3325.35 3830.27,3302.69 3832.00,3280.21 C 3832.00,3257.02 3832.00,3233.84 3832.00,3210.65 C 3830.01,3188.28 3828.00,3165.92 3824.26,3144.29 C 3818.95,3123.29 3815.06,3101.72 3808.97,3081.05 C 3801.94,3060.77 3793.90,3040.92 3781.99,3022.66 C 3768.93,3004.88 3753.60,2988.63 3736.67,2973.55 C 3718.68,2961.01 3700.65,2948.53 3682.24,2937.01 C 3663.43,2926.42 3644.56,2916.01 3625.37,2906.35 C 3606.88,2895.01 3588.42,2883.59 3570.01,2872.06 C 3550.69,2862.71 3531.55,2852.93 3525.54,2841.01 C 3543.47,2828.35 3562.31,2817.84 3580.37,2805.46 C 3598.00,2792.04 3614.85,2778.14 3632.12,2763.87 C 3648.11,2747.89 3663.80,2731.20 3679.27,2715.59 C 3695.00,2699.50 3709.73,2682.41 3722.49,2664.51 C 3735.25,2646.61 3746.10,2627.91 3756.07,2608.85 C 3765.45,2589.55 3774.02,2569.91 3781.26,2549.72 C 3789.90,2530.11 3798.52,2510.49 3806.00,2490.40 C 3813.65,2470.38 3825.33,2453.94 3845.64,2447.00 C 3865.37,2438.64 3885.29,2430.75 3905.27,2423.00 C 3923.92,2412.05 3941.46,2398.40 3959.37,2385.67 C 3977.52,2373.49 3993.48,2357.49 4004.91,2339.04 C 4013.57,2319.44 4020.93,2299.30 4025.87,2278.15 C 4029.99,2256.67 4033.01,2234.73 4035.44,2212.55 C 4037.00,2190.84 4034.94,2168.50 4030.01,2147.35 C 4023.06,2127.04 4014.00,2107.61 4004.99,2088.15 C 3994.46,2069.32 3982.89,2050.93 3965.64,2038.05 C 3944.96,2031.97 3947.97,2010.82 3952.05,1989.33 C 3954.99,1967.36 3956.01,1944.59 3967.45,1928.38 C 3986.33,1917.99 4004.96,1906.97 4023.48,1895.70 C 4042.24,1885.00 4061.78,1876.20 4080.47,1865.35 C 4098.38,1852.59 4115.95,1839.03 4133.48,1825.37 C 4150.80,1811.20 4167.45,1795.40 4183.47,1779.52 C 4197.84,1762.28 4209.12,1743.77 4219.92,1725.05 C 4228.55,1705.44 4235.99,1685.33 4241.94,1664.60 C 4246.94,1643.49 4250.98,1621.97 4253.99,1600.03 C 4255.99,1577.67 4256.00,1554.48 4256.00,1531.30 C 4256.98,1508.53 4256.00,1485.75 4253.58,1463.56 C 4249.16,1442.20 4243.97,1421.16 4236.97,1400.87 C 4229.01,1380.98 4220.00,1361.52 4209.75,1342.58 C 4197.60,1324.42 4183.91,1306.90 4169.75,1289.58 C 4155.99,1272.09 4140.37,1255.37 4123.67,1239.68 C 4107.57,1224.00 4090.15,1210.08 4071.67,1198.70 C 4052.50,1189.00 4032.60,1181.06 4011.95,1174.94 C 3990.86,1169.87 3969.27,1166.00 3947.32,1163.00 C 3924.97,1161.00 3902.19,1160.00 3879.00,1160.00 " fill="none" stroke="black" stroke-width="2" /></svg>