<?xml version="1.0" encoding="utf-8" ?>
<svg baseProfile="full" height="3561" version="1.1" width="6573" xmlns="http://www.w3.org/2000/svg" xmlns:ev="http://www.w3.org/2001/xml-events" xmlns:xlink="http://www.w3.org/1999/xlink"><defs /><path d="M 3404.00,775.00 C 3387.86,790.13 3371.72,805.28 3355.55,820.32 C 3339.74,836.26 3323.90,852.10 3308.05,867.95 C 3292.13,883.76 3276.87,898.02 3258.46,888.31 C 3240.74,877.00 3222.29,867.44 3204.20,857.00 C 3186.86,844.78 3169.48,832.63 3152.31,819.98 C 3133.50,816.69 3116.41,829.54 3099.58,843.01 C 3083.00,857.07 3066.50,871.34 3050.70,887.29 C 3035.56,903.43 3021.11,919.86 3008.12,936.88 C 2996.00,954.27 2985.51,972.33 2976.00,990.80 C 2967.00,1009.48 2960.07,1029.02 2956.96,1050.14 C 2955.00,1071.74 2955.00,1094.15 2956.99,1115.73 C 2960.03,1136.88 2964.00,1157.64 2970.06,1177.54 C 2976.99,1197.08 2985.85,1215.82 2995.28,1234.32 C 3006.88,1251.92 3020.59,1268.65 3036.48,1284.48 C 3038.89,1297.01 3018.39,1301.61 2999.61,1310.37 C 2981.14,1319.89 2962.92,1329.99 2944.66,1340.01 C 2926.81,1351.01 2908.97,1362.05 2891.10,1373.00 C 2873.76,1385.24 2856.74,1398.24 2839.99,1411.91 C 2823.84,1427.01 2807.74,1442.25 2792.70,1458.43 C 2777.58,1474.58 2763.09,1490.98 2749.39,1507.72 C 2736.00,1524.58 2723.98,1542.01 2712.37,1559.60 C 2702.17,1577.79 2692.75,1596.29 2684.02,1615.09 C 2675.89,1634.13 2668.05,1653.29 2661.06,1672.80 C 2657.00,1693.53 2652.99,1714.27 2648.99,1735.03 C 2647.00,1756.61 2646.00,1778.60 2645.00,1800.60 C 2644.04,1822.61 2642.00,1844.17 2640.00,1865.75 C 2639.01,1887.75 2639.00,1910.15 2639.00,1932.56 C 2639.01,1954.97 2642.08,1976.10 2645.18,1997.22 C 2648.30,2018.34 2641.32,2032.72 2622.26,2040.78 C 2603.50,2049.61 2586.98,2063.94 2576.87,2082.16 C 2569.51,2101.52 2562.94,2121.20 2557.95,2141.54 C 2555.01,2162.74 2553.95,2184.75 2555.00,2205.06 C 2558.89,2225.86 2563.40,2246.40 2571.06,2265.64 C 2579.55,2284.53 2588.98,2303.03 2600.62,2320.61 C 2612.14,2338.25 2624.95,2355.35 2636.99,2372.77 C 2652.55,2387.58 2670.74,2397.78 2690.98,2403.01 C 2710.07,2411.01 2730.83,2414.99 2750.36,2421.95 C 2757.96,2440.86 2765.20,2460.27 2772.63,2479.60 C 2779.99,2498.96 2788.01,2518.05 2796.00,2537.15 C 2805.00,2555.83 2815.79,2573.76 2825.17,2592.29 C 2836.15,2610.15 2847.00,2628.06 2858.54,2645.69 C 2870.22,2663.26 2881.88,2680.84 2892.69,2698.77 C 2905.99,2715.67 2919.01,2732.10 2934.92,2747.92 C 2951.90,2761.01 2968.71,2774.54 2985.28,2787.22 C 3001.41,2802.37 3018.40,2815.44 3035.38,2828.56 C 3053.42,2839.19 3036.03,2847.00 3016.93,2854.99 C 2997.84,2863.01 2978.73,2870.95 2960.05,2879.95 C 2940.67,2887.27 2921.46,2895.00 2901.96,2902.01 C 2882.60,2909.37 2863.79,2918.06 2845.50,2928.00 C 2828.05,2939.97 2811.33,2953.70 2795.19,2968.83 C 2778.98,2983.93 2765.28,3000.66 2753.02,3017.99 C 2744.01,3036.67 2736.06,3055.78 2727.40,3074.60 C 2722.05,3094.80 2718.99,3115.94 2714.99,3136.68 C 2713.02,3157.45 2709.96,3178.59 2707.99,3200.18 C 2705.99,3221.77 2704.00,3243.35 2703.05,3265.36 C 2701.01,3286.93 2700.00,3308.92 2699.00,3330.91 C 2698.01,3352.91 2697.02,3374.91 2695.99,3396.89 C 2695.02,3418.90 2694.05,3440.90 2693.00,3462.87 C 2692.00,3484.87 2690.99,3506.86 2691.00,3529.27 C 2690.00,3551.26 2703.67,3560.00 2726.08,3560.00 C 2748.49,3560.00 2770.90,3560.00 2793.31,3560.00 C 2815.71,3560.00 2838.12,3560.00 2860.53,3560.00 C 2882.94,3560.00 2905.35,3560.00 2927.75,3560.00 C 2950.16,3560.00 2972.57,3560.00 2994.98,3560.00 C 3017.39,3560.00 3039.80,3560.00 3062.20,3560.00 C 3084.61,3560.00 3107.02,3560.00 3129.43,3560.00 C 3151.84,3560.00 3174.24,3560.00 3196.65,3560.00 C 3219.06,3560.00 3241.47,3560.00 3263.88,3560.00 C 3286.29,3560.00 3308.69,3560.00 3331.10,3560.00 C 3353.51,3560.00 3375.92,3560.00 3398.33,3560.00 C 3420.73,3560.00 3443.14,3560.00 3465.55,3560.00 C 3487.96,3560.00 3510.37,3560.00 3532.78,3560.00 C 3555.18,3560.00 3577.59,3560.00 3600.00,3560.00 C 3622.41,3560.00 3644.82,3560.00 3667.22,3560.00 C 3689.63,3560.00 3712.04,3560.00 3734.45,3560.00 C 3756.86,3560.00 3779.27,3560.00 3801.67,3560.00 C 3823.86,3559.31 3825.01,3537.34 3826.00,3515.34 C 3825.99,3492.94 3826.00,3471.35 3825.00,3450.19 C 3825.88,3428.15 3826.00,3405.79 3826.00,3383.38 C 3827.01,3361.39 3828.00,3339.39 3829.01,3317.40 C 3831.00,3295.82 3832.00,3273.83 3832.00,3251.42 C 3832.00,3229.01 3832.06,3206.58 3830.00,3185.02 C 3828.06,3163.42 3823.99,3142.69 3819.01,3122.35 C 3815.06,3101.58 3808.99,3081.68 3802.86,3061.81 C 3794.79,3042.75 3783.86,3024.87 3770.86,3007.84 C 3756.14,2992.11 3740.39,2977.42 3723.37,2964.41 C 3705.77,2952.81 3688.53,2940.34 3670.30,2930.25 C 3652.10,2920.09 3633.61,2910.63 3615.45,2900.37 C 3597.79,2888.91 3579.93,2877.93 3561.77,2867.67 C 3542.97,2858.95 3524.28,2850.00 3531.36,2836.47 C 3549.02,2825.01 3567.22,2814.84 3584.72,2803.00 C 3601.57,2789.58 3618.15,2776.93 3634.25,2761.73 C 3649.70,2746.30 3664.82,2730.17 3679.79,2715.13 C 3695.01,2699.61 3709.03,2683.01 3721.21,2665.64 C 3734.43,2648.71 3745.01,2630.68 3754.74,2612.30 C 3763.50,2593.53 3772.21,2574.73 3779.62,2555.39 C 3787.02,2536.04 3795.66,2517.22 3802.97,2497.84 C 3811.06,2478.78 3817.07,2458.86 3836.20,2450.85 C 3855.38,2443.06 3874.48,2435.07 3893.68,2427.31 C 3913.04,2419.95 3930.34,2407.63 3947.37,2394.65 C 3964.67,2382.31 3981.97,2369.99 3995.75,2353.31 C 4006.51,2335.36 4015.09,2316.50 4021.99,2296.95 C 4025.99,2276.20 4029.99,2255.45 4032.98,2234.28 C 4035.18,2212.78 4037.01,2191.95 4035.97,2169.98 C 4030.78,2149.72 4024.06,2130.09 4015.97,2111.04 C 4007.01,2092.34 3997.06,2074.05 3986.21,2056.14 C 3971.87,2040.81 3952.21,2034.16 3946.06,2018.97 C 3950.00,1998.19 3954.06,1977.46 3956.00,1955.86 C 3957.00,1933.87 3958.96,1912.27 3960.00,1890.29 C 3959.08,1869.10 3960.00,1847.13 3959.72,1825.68 C 3958.73,1803.67 3956.00,1782.39 3953.97,1760.83 C 3950.01,1740.06 3945.00,1719.72 3941.01,1698.97 C 3937.06,1678.20 3929.08,1659.10 3921.04,1640.02 C 3912.22,1621.26 3902.99,1602.68 3894.03,1583.98 C 3885.01,1565.31 3875.99,1546.63 3867.02,1527.94 C 3858.01,1509.27 3848.04,1490.99 3838.66,1472.47 C 3828.02,1454.47 3817.01,1436.62 3805.06,1419.16 C 3792.99,1401.75 3779.77,1384.82 3766.05,1368.10 C 3750.24,1352.24 3733.81,1337.78 3716.44,1325.63 C 3719.80,1310.18 3732.80,1293.16 3744.30,1275.51 C 3755.30,1257.66 3764.99,1239.27 3773.60,1220.42 C 3780.94,1201.06 3785.01,1180.33 3789.05,1159.60 C 3791.02,1138.01 3791.00,1115.59 3790.00,1093.60 C 3786.94,1072.46 3784.00,1051.27 3779.99,1030.52 C 3775.13,1010.12 3768.95,990.27 3761.10,971.12 C 3751.76,952.58 3740.02,935.03 3727.03,918.01 C 3713.19,901.33 3699.59,884.55 3685.14,868.13 C 3670.00,851.99 3653.87,836.84 3637.43,822.43 C 3618.94,819.03 3602.31,832.99 3585.24,845.87 C 3567.86,858.01 3549.75,868.38 3531.47,878.35 C 3512.67,887.07 3492.75,890.94 3477.51,876.49 C 3465.01,859.26 3452.83,841.89 3441.15,824.32 C 3430.35,806.39 3419.61,788.43 3405.00,775.00 " fill="none" stroke="black" stroke-width="2" /></svg>