<?xml version="1.0" encoding="utf-8" ?>
<svg baseProfile="full" height="3561" version="1.1" width="6573" xmlns="http://www.w3.org/2000/svg" xmlns:ev="http://www.w3.org/2001/xml-events" xmlns:xlink="http://www.w3.org/1999/xlink"><defs /><path d="M 3668.00,1035.00 C 3643.00,1037.00 3618.00,1039.03 3593.82,1043.01 C 3569.73,1047.23 3546.29,1053.00 3522.95,1059.03 C 3500.00,1065.99 3477.08,1073.01 3454.40,1080.63 C 3432.33,1089.70 3410.75,1100.00 3389.62,1111.35 C 3368.68,1123.17 3348.58,1137.00 3328.71,1151.39 C 3307.69,1161.00 3283.09,1158.00 3257.26,1158.00 C 3231.84,1159.00 3206.40,1159.94 3181.88,1163.11 C 3157.63,1166.95 3134.30,1172.99 3110.97,1179.03 C 3088.03,1186.02 3065.50,1194.00 3043.30,1202.75 C 3021.22,1211.82 2999.99,1222.94 2978.35,1233.06 C 2957.48,1245.05 2937.01,1257.99 2916.15,1270.01 C 2895.70,1282.99 2875.71,1297.23 2858.04,1313.97 C 2839.46,1331.50 2820.62,1348.38 2803.71,1367.21 C 2788.00,1386.53 2771.36,1405.48 2761.73,1427.32 C 2751.19,1448.79 2740.75,1470.30 2730.21,1491.77 C 2719.06,1512.98 2708.99,1534.64 2698.78,1556.24 C 2691.08,1578.89 2684.04,1601.81 2677.06,1624.75 C 2669.00,1647.24 2662.59,1670.42 2656.00,1693.53 C 2649.37,1716.61 2643.03,1739.82 2636.98,1763.15 C 2631.06,1786.53 2625.01,1809.86 2618.97,1833.19 C 2615.00,1857.38 2613.06,1882.41 2612.00,1907.80 C 2611.00,1933.22 2611.77,1958.74 2613.00,1984.06 C 2615.05,2009.04 2618.01,2033.65 2620.96,2058.26 C 2610.41,2076.42 2593.22,2094.65 2581.99,2115.83 C 2575.01,2138.77 2573.00,2163.77 2570.00,2188.36 C 2569.00,2213.78 2569.00,2239.62 2570.00,2265.04 C 2573.95,2289.23 2580.38,2312.40 2590.17,2334.18 C 2601.98,2355.12 2616.07,2375.12 2635.22,2391.33 C 2656.18,2403.09 2678.76,2410.95 2701.67,2418.00 C 2725.86,2417.97 2744.19,2433.22 2752.60,2455.57 C 2762.00,2477.51 2772.14,2499.14 2782.66,2520.62 C 2794.00,2541.75 2807.07,2562.17 2821.01,2582.23 C 2835.01,2602.27 2850.95,2620.91 2867.26,2639.41 C 2886.19,2656.27 2904.92,2672.01 2924.63,2686.79 C 2945.53,2698.70 2966.77,2709.80 2988.79,2719.00 C 3010.48,2729.00 3032.15,2739.04 3054.69,2747.00 C 3076.56,2756.57 3075.85,2770.23 3055.31,2783.01 C 3035.43,2797.39 3016.04,2812.94 2996.61,2828.39 C 2977.82,2844.06 2959.69,2861.18 2941.71,2877.31 C 2926.25,2896.72 2913.78,2917.39 2901.06,2937.96 C 2889.01,2958.80 2877.23,2979.75 2866.07,3000.97 C 2855.56,3022.45 2845.79,3044.23 2835.26,3065.70 C 2826.18,3087.78 2817.12,3109.86 2808.79,3132.24 C 2801.04,3154.86 2793.43,3177.55 2785.94,3200.27 C 2779.94,3223.62 2774.00,3246.99 2769.04,3270.78 C 2763.94,3294.49 2760.19,3318.78 2757.00,3343.29 C 2755.00,3368.29 2753.01,3393.30 2752.05,3418.74 C 2751.00,3444.14 2752.06,3469.53 2753.71,3494.68 C 2756.00,3519.57 2759.02,3544.15 2770.75,3560.00 C 2796.58,3560.00 2822.41,3560.00 2848.25,3560.00 C 2874.08,3560.00 2899.91,3560.00 2925.75,3560.00 C 2951.58,3560.00 2977.41,3560.00 3003.25,3560.00 C 3029.08,3560.00 3054.91,3560.00 3080.75,3560.00 C 3106.58,3560.00 3132.41,3560.00 3158.25,3560.00 C 3184.08,3560.00 3209.92,3560.00 3235.75,3560.00 C 3261.58,3560.00 3287.42,3560.00 3313.25,3560.00 C 3339.08,3560.00 3364.92,3560.00 3390.75,3560.00 C 3416.58,3560.00 3442.42,3560.00 3468.25,3560.00 C 3494.08,3560.00 3519.92,3560.00 3545.75,3560.00 C 3571.58,3560.00 3597.42,3560.00 3623.25,3560.00 C 3649.08,3560.00 3674.92,3560.00 3700.75,3560.00 C 3726.58,3560.00 3752.42,3560.00 3778.25,3560.00 C 3788.00,3543.92 3789.06,3518.47 3788.00,3493.08 C 3787.00,3467.66 3785.99,3442.24 3783.96,3417.25 C 3784.00,3391.40 3782.00,3366.40 3779.94,3341.41 C 3778.00,3316.39 3775.01,3291.79 3771.06,3267.59 C 3765.91,3243.89 3759.68,3220.64 3752.73,3197.69 C 3745.78,3174.73 3737.96,3152.14 3729.03,3130.00 C 3719.99,3107.91 3710.88,3085.85 3701.81,3063.78 C 3692.05,3041.99 3682.00,3020.32 3670.30,2999.33 C 3658.53,2978.37 3644.48,2958.36 3630.99,2938.11 C 3619.00,2917.25 3606.56,2896.56 3590.42,2877.42 C 3573.56,2858.56 3558.91,2838.80 3542.00,2820.56 C 3525.54,2801.54 3509.38,2782.40 3502.07,2765.02 C 3524.55,2756.93 3546.49,2747.52 3567.96,2736.98 C 3588.82,2724.99 3609.49,2712.51 3629.73,2699.01 C 3649.54,2684.47 3669.30,2669.82 3688.41,2653.59 C 3698.28,2632.61 3717.17,2615.83 3734.73,2597.27 C 3752.36,2578.74 3768.43,2559.57 3784.56,2540.41 C 3800.74,2521.28 3816.10,2501.81 3830.90,2482.11 C 3847.89,2478.93 3862.00,2498.92 3874.00,2519.78 C 3883.63,2541.63 3891.06,2564.39 3895.06,2588.56 C 3896.00,2614.01 3893.01,2638.60 3887.94,2662.33 C 3881.50,2685.50 3871.83,2707.33 3853.52,2724.30 C 3832.93,2736.97 3810.86,2746.04 3787.08,2747.01 C 3762.93,2751.06 3752.00,2772.37 3759.92,2794.92 C 3782.00,2804.00 3805.26,2810.22 3829.94,2812.98 C 3855.36,2814.00 3880.27,2811.77 3903.74,2806.06 C 3925.86,2797.12 3947.06,2785.93 3967.44,2772.74 C 3977.00,2778.65 3976.00,2804.07 3976.00,2829.90 C 3980.00,2854.08 3986.99,2877.01 3995.98,2899.12 C 4007.00,2920.39 4019.11,2941.21 4034.53,2960.65 C 4052.89,2978.89 4072.03,2995.04 4091.25,3011.01 C 4111.71,3023.99 4133.57,3033.58 4156.76,3039.95 C 4180.92,3044.00 4206.77,3044.04 4230.92,3039.97 C 4255.49,3036.94 4278.90,3031.09 4301.56,3023.42 C 4323.90,3014.98 4344.85,3003.21 4363.69,2986.31 C 4381.96,2968.04 4398.06,2948.88 4412.85,2929.18 C 4425.56,2908.61 4435.93,2887.07 4442.96,2864.15 C 4448.41,2840.57 4450.00,2815.40 4448.97,2789.99 C 4438.50,2768.49 4416.18,2760.00 4393.47,2767.54 C 4371.15,2776.03 4347.79,2782.00 4323.19,2783.04 C 4300.25,2776.05 4279.58,2763.58 4260.73,2746.73 C 4243.84,2727.89 4231.96,2706.97 4222.96,2684.87 C 4216.94,2661.53 4212.95,2637.35 4217.25,2613.99 C 4237.50,2600.50 4256.91,2584.99 4275.50,2567.50 C 4293.77,2549.23 4312.04,2530.97 4328.86,2512.10 C 4345.06,2492.98 4359.04,2472.93 4372.01,2452.47 C 4383.57,2431.43 4393.07,2409.53 4400.00,2386.57 C 4405.86,2363.16 4408.94,2338.60 4411.00,2313.62 C 4411.00,2287.79 4409.00,2262.78 4405.43,2238.43 C 4398.47,2215.48 4390.03,2193.14 4380.00,2171.46 C 4368.99,2150.19 4355.81,2129.81 4340.46,2110.34 C 4322.82,2091.82 4304.26,2074.26 4285.40,2057.40 C 4267.17,2040.29 4252.43,2020.57 4237.81,2000.79 C 4222.36,1981.36 4206.21,1962.21 4190.06,1943.07 C 4173.93,1923.92 4158.51,1904.47 4144.58,1884.41 C 4131.12,1864.15 4119.22,1843.24 4108.05,1822.04 C 4098.99,1799.95 4092.03,1777.00 4093.04,1753.27 C 4099.81,1730.24 4106.76,1707.29 4113.00,1684.04 C 4119.20,1660.77 4124.94,1637.32 4131.03,1614.01 C 4135.98,1590.23 4140.94,1566.45 4145.99,1542.70 C 4150.00,1518.53 4153.02,1493.95 4154.00,1468.52 C 4153.00,1443.10 4152.00,1417.68 4150.05,1392.66 C 4145.00,1368.92 4139.07,1345.54 4131.03,1323.03 C 4123.00,1300.53 4113.60,1278.59 4102.98,1257.15 C 4091.00,1236.28 4077.94,1215.86 4063.91,1195.84 C 4048.40,1176.43 4031.57,1157.57 4013.30,1139.30 C 3994.46,1122.42 3975.00,1107.02 3954.56,1094.01 C 3933.49,1082.49 3911.71,1072.73 3889.49,1064.00 C 3866.56,1057.00 3843.22,1050.96 3819.03,1047.01 C 3794.44,1043.99 3769.85,1041.00 3745.28,1037.95 C 3720.25,1036.00 3694.83,1035.00 3669.00,1035.00 " fill="none" stroke="black" stroke-width="2" /></svg>