<?xml version="1.0" encoding="utf-8" ?>
<svg baseProfile="full" height="3561" version="1.1" width="6573" xmlns="http://www.w3.org/2000/svg" xmlns:ev="http://www.w3.org/2001/xml-events" xmlns:xlink="http://www.w3.org/1999/xlink"><defs /><path d="M 3240.00,1643.00 C 3219.97,1645.00 3199.93,1647.00 3179.88,1648.97 C 3160.71,1653.05 3141.46,1656.94 3122.67,1661.94 C 3104.24,1667.81 3085.50,1672.93 3067.59,1680.07 C 3049.60,1687.00 3031.61,1693.95 3014.10,1702.03 C 2996.98,1711.07 2979.57,1719.42 2962.77,1729.20 C 2946.30,1739.82 2929.64,1749.95 2912.61,1759.23 C 2896.13,1769.80 2880.52,1782.48 2865.89,1796.11 C 2850.84,1810.14 2835.72,1824.01 2820.36,1837.50 C 2807.08,1852.86 2794.49,1868.51 2781.20,1883.86 C 2768.50,1899.47 2757.01,1915.57 2746.05,1931.89 C 2735.58,1948.42 2724.35,1964.63 2715.95,1982.01 C 2707.00,1999.17 2697.81,2016.22 2689.98,2033.84 C 2682.06,2051.42 2674.07,2068.98 2667.94,2087.30 C 2662.91,2106.08 2658.00,2124.91 2653.00,2143.70 C 2649.00,2162.91 2645.65,2182.38 2642.00,2201.74 C 2637.97,2220.93 2635.01,2240.56 2631.99,2260.18 C 2629.03,2279.81 2626.06,2299.45 2622.96,2319.02 C 2619.99,2338.66 2618.00,2358.70 2616.00,2378.73 C 2615.59,2399.42 2615.00,2420.04 2614.99,2440.91 C 2617.00,2460.94 2618.01,2481.38 2620.28,2501.31 C 2622.30,2521.33 2625.01,2541.07 2620.70,2557.96 C 2605.56,2570.41 2593.68,2586.34 2585.01,2603.62 C 2579.03,2622.00 2577.99,2642.44 2574.98,2662.05 C 2573.00,2682.09 2573.00,2702.96 2573.00,2723.82 C 2572.95,2744.70 2575.95,2764.32 2580.33,2783.37 C 2586.02,2801.88 2594.29,2819.31 2603.99,2836.16 C 2614.54,2852.65 2628.24,2867.27 2644.04,2878.08 C 2660.86,2887.85 2679.18,2893.97 2697.55,2900.00 C 2696.63,2907.35 2678.94,2915.01 2661.57,2923.43 C 2645.68,2935.44 2629.61,2947.00 2614.87,2960.24 C 2600.22,2973.85 2587.00,2989.24 2573.25,3003.82 C 2559.86,3019.13 2546.29,3033.79 2532.51,3048.37 C 2520.38,3063.62 2507.48,3078.55 2494.82,3094.17 C 2480.73,3109.20 2468.85,3125.14 2454.52,3139.48 C 2439.52,3153.63 2423.26,3164.75 2405.83,3173.04 C 2387.87,3180.05 2376.00,3194.87 2376.00,3215.73 C 2385.20,3232.20 2400.85,3244.77 2417.48,3255.00 C 2435.00,3263.05 2452.99,3270.01 2470.95,3277.00 C 2489.52,3282.53 2508.96,3285.99 2529.81,3286.00 C 2549.46,3287.06 2568.66,3287.06 2588.25,3285.99 C 2607.86,3282.96 2627.50,3280.00 2645.92,3274.09 C 2664.23,3267.95 2681.16,3259.86 2698.37,3251.05 C 2715.46,3241.93 2732.62,3232.99 2745.07,3220.05 C 2755.22,3216.61 2768.84,3203.15 2780.67,3188.36 C 2793.15,3173.84 2803.03,3157.07 2800.80,3154.25 C 2812.05,3141.36 2816.94,3131.99 2819.01,3117.34 C 2827.37,3105.44 2833.24,3087.75 2846.87,3096.87 C 2860.21,3112.21 2874.55,3126.55 2889.88,3139.90 C 2904.92,3153.95 2921.17,3165.08 2937.61,3175.77 C 2954.46,3185.45 2971.77,3194.04 2989.31,3202.06 C 3007.21,3209.19 3024.59,3217.61 3042.37,3225.07 C 3060.36,3232.00 3077.93,3239.94 3087.68,3249.32 C 3072.63,3263.37 3057.59,3277.41 3042.84,3292.16 C 3030.26,3307.82 3017.67,3323.47 3004.94,3339.06 C 2993.82,3355.31 2981.00,3370.86 2969.00,3386.76 C 2957.25,3402.75 2945.99,3418.95 2934.01,3434.85 C 2922.17,3450.81 2910.97,3467.03 2899.00,3482.94 C 2887.16,3498.90 2876.99,3515.55 2865.27,3531.55 C 2853.37,3547.49 2854.13,3560.00 2874.99,3560.00 C 2895.85,3560.00 2916.71,3560.00 2937.58,3560.00 C 2958.44,3560.00 2979.30,3560.00 3000.16,3560.00 C 3021.03,3560.00 3041.89,3560.00 3062.75,3560.00 C 3083.62,3560.00 3104.48,3560.00 3125.34,3560.00 C 3146.20,3560.00 3167.07,3560.00 3187.93,3560.00 C 3208.79,3560.00 3229.65,3560.00 3250.52,3560.00 C 3271.38,3560.00 3292.24,3560.00 3313.11,3560.00 C 3333.97,3560.00 3354.83,3560.00 3375.69,3560.00 C 3396.56,3560.00 3417.42,3560.00 3438.28,3560.00 C 3459.14,3560.00 3480.01,3560.00 3500.87,3560.00 C 3521.73,3560.00 3542.60,3560.00 3563.46,3560.00 C 3584.32,3560.00 3605.18,3560.00 3626.05,3560.00 C 3646.91,3560.00 3667.77,3560.00 3688.63,3560.00 C 3709.50,3560.00 3718.74,3551.58 3707.52,3535.36 C 3696.10,3519.23 3684.95,3502.98 3674.00,3486.66 C 3661.79,3470.85 3650.51,3454.66 3640.00,3438.15 C 3628.94,3421.87 3617.99,3405.55 3607.10,3389.19 C 3597.25,3372.41 3586.86,3355.85 3574.91,3339.94 C 3562.21,3324.34 3549.38,3309.37 3536.03,3294.04 C 3522.68,3278.71 3509.36,3263.36 3504.38,3249.00 C 3522.53,3242.46 3540.72,3235.99 3557.90,3227.10 C 3575.01,3218.05 3592.08,3208.90 3608.59,3198.39 C 3625.16,3188.00 3641.06,3176.03 3657.26,3164.77 C 3673.17,3152.82 3688.80,3140.20 3703.48,3126.67 C 3718.33,3113.61 3730.04,3113.21 3735.75,3131.71 C 3743.00,3149.57 3751.10,3167.07 3761.01,3183.83 C 3773.49,3199.53 3786.00,3215.21 3800.19,3230.19 C 3815.82,3242.82 3831.70,3254.85 3848.30,3265.16 C 3864.76,3275.78 3882.16,3284.14 3900.43,3290.41 C 3918.97,3296.01 3937.83,3300.85 3957.39,3303.99 C 3977.83,3305.00 3998.28,3306.00 4018.73,3305.00 C 4038.76,3303.00 4058.56,3300.43 4077.99,3296.97 C 4096.80,3292.02 4115.59,3287.00 4134.35,3281.94 C 4153.61,3278.06 4171.52,3270.93 4189.92,3264.99 C 4207.47,3257.00 4225.00,3248.94 4241.80,3239.13 C 4247.05,3228.13 4247.00,3207.26 4236.47,3194.00 C 4216.84,3191.03 4199.22,3183.19 4182.16,3174.01 C 4165.27,3164.41 4149.14,3152.99 4132.86,3141.92 C 4117.25,3129.25 4102.50,3114.50 4088.45,3099.45 C 4076.62,3083.49 4065.38,3067.28 4053.99,3051.14 C 4042.93,3034.86 4032.47,3018.33 4021.96,3001.82 C 4012.00,2985.08 4000.12,2969.14 3985.80,2954.80 C 3970.42,2941.55 3955.58,2927.00 3940.27,2915.01 C 3923.96,2904.03 3928.98,2895.96 3946.67,2888.31 C 3963.43,2878.40 3979.69,2867.29 3993.76,2852.27 C 4006.01,2836.48 4018.27,2820.70 4028.06,2803.89 C 4035.78,2786.22 4041.07,2767.55 4043.00,2747.49 C 4045.05,2728.26 4045.79,2710.23 4042.99,2691.53 C 4040.01,2672.73 4037.99,2653.53 4034.21,2634.24 C 4029.35,2615.39 4023.09,2597.12 4014.00,2580.02 C 4002.80,2563.80 3986.86,2551.91 3970.93,2539.96 C 3973.05,2522.41 3973.01,2503.17 3973.02,2483.98 C 3973.01,2464.76 3974.05,2445.97 3973.00,2426.35 C 3972.91,2407.10 3971.94,2387.50 3970.96,2368.71 C 3970.02,2349.94 3970.98,2331.99 3971.98,2314.02 C 3972.01,2294.81 3969.01,2275.19 3967.70,2255.69 C 3964.98,2236.78 3961.00,2217.57 3957.99,2197.96 C 3953.84,2178.81 3949.71,2159.66 3944.96,2140.77 C 3939.97,2121.97 3935.03,2103.15 3927.44,2085.44 C 3920.00,2067.65 3912.80,2049.77 3905.82,2031.80 C 3899.04,2013.75 3892.57,1995.57 3886.06,1977.40 C 3877.00,1960.29 3866.81,1943.65 3857.02,1926.84 C 3847.87,1909.77 3835.87,1893.87 3823.96,1877.94 C 3812.03,1862.02 3799.29,1846.44 3786.99,1830.67 C 3772.32,1816.47 3759.09,1801.09 3744.73,1786.76 C 3729.41,1773.41 3713.69,1760.99 3697.38,1750.00 C 3680.47,1740.47 3663.42,1731.25 3645.69,1723.71 C 3628.43,1715.00 3610.91,1706.93 3592.91,1700.01 C 3574.66,1693.71 3556.13,1688.09 3537.81,1681.95 C 3519.58,1675.60 3501.03,1670.00 3482.46,1664.46 C 3463.04,1660.99 3443.00,1658.99 3422.97,1656.98 C 3402.52,1656.00 3382.35,1654.32 3362.33,1652.30 C 3342.41,1650.00 3322.80,1646.99 3302.76,1645.00 C 3282.73,1643.00 3261.86,1643.00 3241.00,1643.00 " fill="none" stroke="black" stroke-width="2" /></svg>