<?xml version="1.0" encoding="utf-8" ?>
<svg baseProfile="full" height="3561" version="1.1" width="6573" xmlns="http://www.w3.org/2000/svg" xmlns:ev="http://www.w3.org/2001/xml-events" xmlns:xlink="http://www.w3.org/1999/xlink"><defs /><path d="M 3236.00,1158.00 C 3196.61,1161.36 3158.17,1167.00 3121.38,1176.64 C 3084.88,1186.97 3049.47,1199.93 3014.62,1214.22 C 2981.15,1231.88 2947.92,1250.12 2915.51,1270.31 C 2883.55,1291.60 2854.62,1317.38 2824.91,1344.09 C 2798.94,1374.12 2772.22,1403.88 2736.03,1393.04 C 2698.41,1385.39 2659.45,1381.00 2619.48,1379.06 C 2579.56,1379.01 2540.59,1383.39 2502.97,1391.02 C 2466.30,1400.93 2430.49,1412.93 2395.14,1426.03 C 2359.79,1439.15 2324.73,1452.96 2290.19,1468.00 C 2256.33,1484.71 2222.71,1502.00 2189.51,1520.30 C 2157.47,1541.39 2127.25,1566.87 2097.79,1594.21 C 2071.87,1624.25 2048.99,1655.55 2030.99,1688.88 C 2017.08,1723.89 2009.00,1761.33 2004.00,1800.03 C 2003.00,1840.40 2006.00,1879.93 2014.06,1917.37 C 2025.06,1953.60 2038.76,1988.70 2052.00,2024.00 C 2059.01,2061.87 2059.74,2101.30 2051.96,2138.86 C 2039.00,2174.27 2017.73,2206.24 1990.33,2235.67 C 1960.05,2261.01 1930.32,2287.69 1902.02,2314.98 C 1876.71,2345.28 1857.08,2377.93 1844.50,2413.49 C 1842.00,2453.24 1846.99,2491.95 1857.39,2528.42 C 1871.00,2563.56 1888.89,2596.93 1910.01,2628.96 C 1935.27,2659.28 1965.25,2685.37 1997.93,2704.92 C 2032.05,2720.98 2066.14,2737.14 2093.46,2766.60 C 2118.85,2796.87 2140.62,2828.62 2160.00,2861.37 C 2166.00,2899.67 2168.06,2939.60 2173.99,2977.92 C 2185.94,3013.75 2203.00,3047.46 2224.41,3079.37 C 2251.80,3108.80 2282.97,3132.00 2315.88,3151.01 C 2350.48,3165.93 2387.52,3174.94 2425.80,3180.99 C 2465.32,3183.99 2495.45,3162.54 2498.17,3125.22 C 2471.82,3098.96 2437.42,3083.56 2406.87,3058.87 C 2382.99,3027.98 2368.99,2993.00 2380.32,2980.19 C 2412.35,3001.31 2446.61,3017.06 2483.26,3027.01 C 2521.98,3032.00 2562.34,3033.00 2600.22,3026.01 C 2630.37,3004.61 2614.35,2979.32 2581.11,2961.10 C 2549.05,2940.05 2519.75,2913.75 2492.43,2885.46 C 2468.58,2854.56 2449.00,2821.89 2430.72,2788.69 C 2416.74,2753.70 2403.96,2718.22 2398.01,2679.90 C 2394.00,2640.78 2396.95,2601.23 2409.38,2565.59 C 2428.31,2532.66 2448.58,2500.28 2468.99,2467.95 C 2487.15,2434.69 2505.49,2401.51 2520.96,2367.14 C 2534.14,2331.82 2543.98,2295.12 2550.00,2256.83 C 2552.00,2216.88 2550.00,2176.93 2545.01,2138.22 C 2536.85,2100.82 2528.95,2063.31 2530.05,2022.95 C 2537.02,1985.05 2547.40,1948.58 2562.00,1913.84 C 2579.52,1880.32 2601.40,1848.61 2618.99,1830.05 C 2614.00,1868.76 2612.00,1908.71 2611.00,1949.08 C 2613.75,1988.71 2617.84,2027.80 2622.00,2066.86 C 2594.63,2093.37 2577.99,2127.26 2572.99,2165.96 C 2569.00,2205.09 2569.00,2245.87 2572.99,2285.00 C 2584.00,2321.21 2601.70,2354.66 2626.56,2384.55 C 2658.86,2405.01 2695.07,2416.06 2732.10,2421.09 C 2751.63,2452.62 2766.29,2487.33 2783.00,2521.18 C 2802.00,2554.09 2823.90,2585.80 2847.36,2616.29 C 2873.89,2644.89 2903.17,2671.24 2935.26,2692.22 C 2968.49,2710.46 3003.18,2725.15 3037.57,2740.58 C 3072.37,2755.01 3067.73,2775.02 3036.05,2797.00 C 3005.49,2821.66 2976.33,2846.76 2947.68,2873.39 C 2923.27,2902.83 2902.88,2935.16 2883.92,2968.08 C 2866.00,3001.44 2849.00,3035.18 2834.06,3069.77 C 2820.06,3104.75 2806.07,3139.73 2794.00,3175.51 C 2782.95,3211.71 2773.44,3248.55 2765.99,3286.24 C 2760.00,3324.54 2755.53,3363.47 2752.01,3402.79 C 2751.00,3443.15 2753.00,3483.10 2756.01,3522.64 C 2762.93,3560.01 2803.71,3560.00 2844.49,3560.00 C 2885.27,3560.00 2926.05,3560.00 2966.83,3560.00 C 3007.61,3560.00 3048.38,3560.00 3089.16,3560.00 C 3129.94,3560.00 3170.72,3560.00 3211.50,3560.00 C 3252.28,3560.00 3293.06,3560.00 3333.84,3560.00 C 3374.62,3560.00 3415.39,3560.00 3456.17,3560.00 C 3496.95,3560.00 3537.73,3560.00 3578.51,3560.00 C 3619.29,3560.00 3660.07,3560.00 3700.85,3560.00 C 3741.63,3560.00 3782.41,3560.00 3789.00,3525.23 C 3786.95,3485.30 3786.00,3444.91 3784.00,3404.96 C 3782.00,3365.01 3778.99,3325.48 3773.96,3286.79 C 3766.94,3248.92 3757.90,3211.88 3745.99,3176.03 C 3733.44,3140.45 3719.44,3105.47 3705.05,3070.65 C 3689.35,3036.38 3672.00,3002.79 3652.11,2970.25 C 3631.00,2938.21 3612.19,2905.23 3587.62,2874.62 C 3562.22,2844.36 3536.73,2814.73 3510.99,2784.61 C 3512.44,2760.93 3547.45,2747.00 3580.83,2729.14 C 3613.69,2710.01 3645.24,2687.75 3676.13,2663.87 C 3697.19,2633.82 3725.90,2606.10 3753.22,2576.63 C 3779.31,2546.66 3805.00,2516.52 3828.61,2485.53 C 3851.01,2454.02 3870.65,2421.38 3907.11,2415.00 C 3943.52,2404.45 3975.89,2384.16 4002.00,2354.16 C 4024.35,2322.64 4036.99,2287.10 4043.01,2250.46 C 4041.46,2213.63 4038.53,2177.39 4028.01,2140.97 C 4016.89,2104.79 3993.63,2073.66 3968.29,2048.53 C 3970.04,2010.97 3969.95,1974.34 3981.62,1966.58 C 4010.30,1994.33 4041.43,2017.61 4075.02,2034.97 C 4109.69,2049.72 4144.14,2064.99 4175.86,2086.86 C 4202.08,2116.20 4221.09,2149.10 4215.79,2185.28 C 4202.06,2220.37 4186.99,2254.90 4170.22,2288.74 C 4151.99,2321.96 4132.00,2354.46 4113.00,2387.37 C 4095.19,2420.77 4081.98,2456.08 4075.76,2494.28 C 4076.00,2534.33 4084.58,2571.56 4099.23,2606.27 C 4120.21,2638.36 4149.45,2665.00 4179.62,2690.62 C 4204.05,2721.28 4195.09,2755.90 4173.99,2787.95 C 4145.91,2817.09 4115.03,2840.99 4080.91,2857.06 C 4043.00,2864.00 4006.23,2873.68 3993.00,2909.03 C 4005.00,2944.84 4027.36,2976.36 4057.95,3000.93 C 4091.67,3017.99 4127.92,3028.93 4167.00,3033.01 C 4206.13,3031.05 4207.00,3070.67 4213.03,3108.95 C 4226.02,3144.35 4248.72,3175.72 4278.62,3201.99 C 4311.53,3221.00 4347.74,3232.01 4363.12,3213.15 C 4351.25,3177.29 4343.02,3139.92 4336.00,3102.05 C 4332.00,3062.93 4333.96,3023.79 4348.00,2988.82 C 4367.00,2955.92 4388.78,2924.16 4415.54,2894.46 C 4444.37,2865.63 4473.79,2838.19 4502.60,2809.36 C 4528.74,2779.41 4554.00,2749.09 4578.53,2718.47 C 4600.00,2686.59 4623.56,2655.57 4645.13,2623.72 C 4664.15,2590.82 4680.97,2557.01 4694.07,2521.66 C 4704.02,2485.00 4711.00,2447.12 4714.99,2407.99 C 4713.76,2367.72 4706.85,2329.81 4693.53,2294.55 C 4675.97,2261.04 4656.36,2228.39 4637.01,2195.62 C 4617.73,2162.83 4598.82,2129.88 4577.99,2097.73 C 4558.88,2064.87 4548.98,2029.00 4555.96,1991.12 C 4570.03,1956.17 4581.94,1920.32 4592.92,1884.09 C 4599.10,1845.87 4603.00,1806.71 4602.99,1765.93 C 4596.94,1727.66 4587.01,1690.99 4572.97,1656.03 C 4554.88,1622.74 4532.21,1591.35 4506.31,1561.31 C 4477.89,1532.88 4448.47,1505.46 4417.84,1480.94 C 4386.09,1459.14 4353.47,1439.46 4319.95,1421.94 C 4286.48,1404.29 4252.32,1388.29 4217.62,1373.63 C 4182.07,1361.01 4145.88,1349.91 4109.16,1340.13 C 4071.53,1332.53 4033.46,1325.99 3994.73,1321.04 C 3955.21,1318.00 3914.84,1317.00 3875.72,1321.00 C 3838.70,1330.06 3803.49,1343.51 3773.85,1335.84 C 3746.13,1307.13 3716.11,1281.16 3684.37,1259.34 C 3650.54,1242.55 3616.62,1225.99 3581.47,1212.43 C 3545.57,1200.63 3509.71,1188.76 3473.41,1177.95 C 3434.68,1173.00 3394.73,1171.00 3355.61,1167.00 C 3316.90,1162.00 3277.78,1158.00 3237.00,1158.00 " fill="none" stroke="black" stroke-width="2" /></svg>