<?xml version="1.0" encoding="utf-8" ?>
<svg baseProfile="full" height="3561" version="1.1" width="6573" xmlns="http://www.w3.org/2000/svg" xmlns:ev="http://www.w3.org/2001/xml-events" xmlns:xlink="http://www.w3.org/1999/xlink"><defs /><path d="M 3554.00,1051.00 C 3524.92,1053.01 3495.84,1055.00 3467.70,1059.27 C 3440.60,1066.07 3413.98,1074.00 3387.82,1083.05 C 3362.04,1093.03 3336.67,1104.00 3311.24,1109.20 C 3285.53,1099.06 3258.97,1090.96 3231.95,1084.00 C 3204.08,1079.07 3175.44,1076.00 3146.77,1073.00 C 3117.69,1071.00 3088.19,1070.00 3058.70,1071.00 C 3029.62,1073.00 3000.95,1076.00 2972.70,1080.00 C 2945.20,1085.83 2918.49,1093.54 2892.63,1103.32 C 2867.15,1114.03 2841.80,1125.05 2816.89,1137.10 C 2793.12,1151.94 2769.45,1166.99 2745.28,1180.86 C 2721.51,1195.67 2698.56,1212.48 2676.81,1232.19 C 2657.87,1254.25 2640.23,1276.85 2624.98,1300.45 C 2611.98,1324.97 2599.00,1349.50 2587.38,1374.60 C 2576.12,1399.85 2565.60,1425.40 2555.06,1450.94 C 2545.19,1476.76 2536.00,1502.87 2526.97,1529.04 C 2518.04,1555.25 2509.40,1581.58 2501.00,1608.01 C 2492.94,1634.58 2486.06,1661.64 2479.06,1688.65 C 2472.24,1715.74 2467.00,1743.48 2463.00,1771.73 C 2460.06,1800.42 2458.00,1829.48 2457.00,1858.98 C 2458.00,1888.47 2460.00,1917.55 2449.66,1942.35 C 2429.91,1964.08 2410.18,1985.82 2391.85,2008.14 C 2374.31,2030.78 2357.00,2053.52 2341.01,2076.81 C 2326.34,2100.64 2313.71,2125.32 2301.77,2150.28 C 2291.16,2175.80 2282.99,2202.32 2276.00,2229.34 C 2271.04,2257.19 2267.00,2285.43 2265.00,2314.51 C 2264.00,2344.01 2267.05,2372.65 2272.98,2400.11 C 2282.91,2425.90 2295.70,2450.52 2311.00,2474.09 C 2328.78,2496.64 2348.41,2518.41 2369.86,2538.86 C 2391.00,2560.00 2410.02,2582.04 2425.00,2605.74 C 2430.02,2631.93 2418.82,2657.21 2401.90,2680.10 C 2380.22,2699.99 2356.38,2714.64 2330.26,2723.78 C 2302.51,2728.99 2273.01,2730.02 2245.56,2724.06 C 2220.17,2713.16 2195.55,2700.38 2171.42,2686.43 C 2151.00,2699.41 2160.41,2725.42 2173.72,2749.82 C 2191.30,2772.45 2213.62,2791.00 2236.90,2807.00 C 2260.99,2821.05 2285.99,2832.94 2266.28,2854.69 C 2247.99,2877.02 2232.00,2900.31 2219.95,2925.23 C 2212.02,2951.85 2206.00,2979.27 2203.00,3007.94 C 2202.99,3037.85 2206.98,3066.11 2225.04,3054.98 C 2241.28,3031.80 2259.65,3009.49 2279.26,2987.65 C 2301.44,2969.00 2324.73,2953.02 2348.88,2939.12 C 2374.14,2927.88 2400.28,2918.77 2426.95,2910.97 C 2454.56,2905.42 2483.34,2902.69 2512.55,2901.00 C 2542.46,2901.00 2571.96,2902.00 2600.63,2905.00 C 2626.27,2915.28 2627.03,2944.07 2628.94,2972.34 C 2635.94,2999.35 2641.99,3026.76 2650.22,3053.26 C 2662.19,3078.21 2676.97,3102.00 2694.51,3124.64 C 2715.62,3144.65 2738.85,3160.78 2756.06,3153.62 C 2748.77,3126.73 2746.00,3097.97 2749.95,3069.69 C 2760.00,3043.95 2771.96,3018.99 2786.71,2995.19 C 2804.49,2972.64 2824.43,2951.58 2846.44,2932.52 C 2869.32,2915.53 2893.20,2900.99 2916.68,2885.47 C 2939.86,2869.22 2963.04,2852.96 2985.36,2834.64 C 3006.00,2813.87 3022.99,2790.99 3037.72,2767.19 C 3053.45,2746.46 3078.99,2757.01 3070.56,2773.61 C 3047.02,2788.98 3024.46,2806.72 3001.79,2824.19 C 2980.21,2842.90 2958.86,2862.15 2937.96,2881.05 C 2921.99,2904.35 2907.00,2928.05 2892.89,2952.11 C 2879.00,2976.27 2866.14,3000.85 2854.00,3025.73 C 2842.92,3051.06 2831.01,3076.03 2821.05,3101.82 C 2810.63,3127.41 2800.93,3153.30 2793.02,3179.93 C 2784.65,3206.38 2777.65,3233.39 2771.06,3260.57 C 2765.75,3288.28 2760.99,3316.22 2757.00,3344.48 C 2754.99,3373.55 2752.00,3402.22 2751.00,3431.72 C 2751.00,3461.63 2753.00,3490.71 2756.00,3519.38 C 2760.06,3547.61 2778.71,3560.00 2808.62,3560.00 C 2838.53,3560.00 2868.44,3560.00 2898.35,3560.00 C 2928.26,3560.00 2958.17,3560.00 2988.08,3560.00 C 3017.99,3560.00 3047.90,3560.00 3077.81,3560.00 C 3107.72,3560.00 3137.63,3560.00 3167.54,3560.00 C 3197.45,3560.00 3227.36,3560.00 3257.27,3560.00 C 3287.18,3560.00 3317.09,3560.00 3347.00,3560.00 C 3376.91,3560.00 3406.82,3560.00 3436.73,3560.00 C 3466.64,3560.00 3496.55,3560.00 3526.46,3560.00 C 3556.37,3560.00 3586.28,3560.00 3616.19,3560.00 C 3646.10,3560.00 3676.01,3560.00 3705.92,3560.00 C 3735.83,3560.00 3765.74,3560.00 3788.00,3552.35 C 3789.00,3522.85 3788.00,3493.35 3786.17,3464.20 C 3785.00,3434.78 3784.00,3405.28 3782.12,3376.15 C 3781.00,3346.70 3778.00,3318.04 3775.00,3289.37 C 3769.99,3261.53 3763.36,3234.37 3755.93,3207.54 C 3747.21,3181.24 3739.05,3154.71 3729.01,3128.96 C 3718.43,3103.43 3707.90,3077.88 3696.93,3052.52 C 3685.50,3027.34 3672.05,3003.00 3658.77,2978.60 C 3641.99,2955.63 3627.03,2931.92 3613.60,2907.58 C 3596.69,2884.67 3576.95,2862.94 3559.23,2840.37 C 3540.69,2818.72 3521.01,2796.96 3502.76,2774.61 C 3514.70,2760.25 3539.99,2755.78 3554.63,2779.63 C 3570.06,2803.15 3587.04,2826.03 3603.92,2848.95 C 3623.67,2870.67 3644.41,2891.41 3666.72,2909.75 C 3689.94,2925.91 3714.88,2937.90 3740.71,2947.75 C 3766.84,2956.87 3792.96,2966.03 3818.76,2975.94 C 3844.10,2986.99 3868.44,3000.44 3891.05,3018.05 C 3911.73,3038.81 3928.81,3061.65 3941.07,3086.48 C 3950.48,3112.49 3956.81,3139.78 3958.00,3169.19 C 3975.23,3174.65 3998.17,3157.82 4019.91,3138.09 C 4039.02,3116.10 4050.06,3090.76 4056.96,3063.71 C 4062.95,3036.28 4069.00,3008.88 4073.99,2981.03 C 4077.00,2952.37 4078.00,2922.87 4075.99,2893.80 C 4077.73,2871.76 4105.89,2875.99 4134.97,2878.00 C 4164.46,2879.00 4194.37,2879.00 4223.87,2878.00 C 4252.95,2876.00 4281.62,2873.00 4309.90,2869.08 C 4338.13,2865.01 4366.27,2860.76 4393.56,2854.43 C 4420.00,2846.03 4446.14,2836.94 4467.85,2817.15 C 4488.29,2795.71 4507.35,2773.69 4523.52,2750.48 C 4522.90,2729.98 4497.99,2742.04 4472.18,2751.95 C 4444.78,2758.00 4415.70,2759.99 4387.02,2757.02 C 4360.46,2748.94 4334.75,2738.79 4310.40,2725.38 C 4287.27,2709.01 4265.75,2688.75 4246.72,2666.72 C 4231.13,2643.27 4219.23,2618.29 4211.04,2591.77 C 4207.36,2563.38 4209.00,2534.45 4220.32,2510.00 C 4240.45,2490.59 4258.36,2468.68 4274.54,2445.47 C 4289.41,2421.72 4302.80,2397.36 4316.07,2372.94 C 4326.94,2347.54 4336.96,2321.78 4345.58,2295.44 C 4350.96,2267.76 4355.99,2239.93 4358.00,2210.85 C 4359.00,2181.36 4359.00,2151.45 4357.01,2122.36 C 4352.06,2094.50 4344.68,2067.65 4335.55,2041.52 C 4325.01,2015.98 4315.00,1990.21 4303.00,1965.27 C 4289.91,1940.79 4273.54,1917.66 4255.30,1895.30 C 4234.87,1873.85 4215.12,1852.12 4194.68,1830.68 C 4174.24,1809.24 4153.80,1787.80 4134.08,1766.05 C 4115.03,1744.03 4097.42,1721.42 4082.02,1697.89 C 4070.70,1672.67 4063.00,1645.94 4055.95,1618.96 C 4047.54,1592.53 4039.09,1566.12 4030.93,1539.59 C 4023.01,1512.96 4016.03,1485.94 4008.97,1458.95 C 4002.67,1431.65 3996.96,1404.11 3988.93,1377.53 C 3980.20,1351.23 3971.95,1324.74 3964.83,1297.78 C 3953.55,1272.54 3940.84,1247.90 3925.47,1224.35 C 3907.99,1201.68 3890.01,1179.22 3869.72,1157.72 C 3847.98,1137.98 3825.41,1120.27 3801.58,1105.59 C 3777.30,1092.00 3752.36,1080.01 3726.42,1070.40 C 3699.58,1062.99 3671.81,1057.84 3643.49,1054.00 C 3614.38,1052.06 3584.91,1051.00 3555.00,1051.00 " fill="none" stroke="black" stroke-width="2" /></svg>