<?xml version="1.0" encoding="utf-8" ?>
<svg baseProfile="full" height="3561" version="1.1" width="6573" xmlns="http://www.w3.org/2000/svg" xmlns:ev="http://www.w3.org/2001/xml-events" xmlns:xlink="http://www.w3.org/1999/xlink"><defs /><path d="M 3191.00,1055.00 C 3178.00,1071.25 3169.00,1090.34 3160.97,1109.82 C 3153.96,1129.73 3145.85,1149.18 3138.05,1168.76 C 3130.55,1188.46 3123.02,1208.15 3116.01,1228.06 C 3109.04,1247.98 3104.01,1268.71 3097.69,1285.69 C 3080.11,1273.07 3062.50,1260.50 3044.90,1247.93 C 3027.65,1234.50 3010.02,1221.99 2992.59,1209.00 C 2975.10,1196.15 2957.74,1182.99 2940.22,1170.22 C 2922.59,1157.73 2905.37,1144.24 2886.36,1134.95 C 2874.00,1149.53 2870.99,1171.09 2868.93,1193.05 C 2864.02,1213.82 2860.75,1235.28 2855.99,1256.12 C 2851.94,1277.25 2848.00,1298.43 2845.00,1320.00 C 2843.00,1341.98 2827.10,1341.02 2808.00,1332.06 C 2788.66,1323.70 2769.33,1315.29 2749.98,1306.93 C 2730.86,1298.02 2711.35,1290.06 2692.21,1281.19 C 2672.85,1272.87 2653.51,1264.50 2636.01,1268.61 C 2634.98,1291.01 2639.10,1312.12 2643.01,1333.31 C 2646.93,1354.49 2652.03,1375.19 2656.96,1395.96 C 2662.06,1416.66 2667.07,1437.39 2672.01,1458.16 C 2677.04,1478.88 2682.06,1499.61 2685.99,1520.79 C 2687.00,1541.53 2680.39,1561.60 2674.97,1582.17 C 2671.00,1603.33 2667.34,1624.63 2664.01,1646.06 C 2661.05,1667.64 2657.01,1688.78 2653.78,1710.25 C 2650.00,1731.50 2647.68,1753.35 2645.94,1775.43 C 2645.02,1797.86 2643.98,1820.24 2642.00,1842.23 C 2640.01,1864.22 2638.99,1886.60 2639.00,1909.42 C 2639.00,1932.23 2639.04,1955.02 2642.42,1976.43 C 2645.85,1997.82 2649.05,2019.31 2639.74,2032.96 C 2620.48,2041.53 2601.38,2050.49 2585.82,2066.34 C 2575.22,2084.76 2568.28,2104.69 2561.97,2124.89 C 2557.99,2146.05 2555.00,2167.62 2555.00,2189.60 C 2554.97,2210.77 2560.06,2231.47 2566.03,2251.81 C 2573.04,2271.72 2582.01,2290.81 2592.32,2309.35 C 2605.01,2326.90 2617.65,2344.48 2629.50,2362.38 C 2643.01,2379.01 2660.04,2392.95 2679.49,2401.07 C 2699.89,2406.89 2720.16,2413.02 2740.63,2418.67 C 2755.01,2431.40 2762.06,2451.29 2769.15,2471.16 C 2777.00,2490.72 2784.44,2510.45 2792.81,2529.79 C 2801.86,2548.86 2812.31,2567.34 2822.11,2586.09 C 2832.46,2604.61 2843.76,2622.74 2855.99,2640.49 C 2867.40,2658.57 2879.52,2676.36 2890.01,2694.83 C 2903.19,2712.17 2916.71,2728.80 2932.19,2745.19 C 2949.24,2759.11 2966.22,2773.19 2983.89,2785.73 C 2999.83,2800.76 3017.13,2814.07 3034.47,2827.29 C 3052.41,2839.01 3036.64,2846.95 3017.12,2854.89 C 2997.67,2863.00 2978.16,2870.97 2959.10,2880.02 C 2939.62,2888.06 2920.07,2895.93 2899.83,2902.13 C 2880.49,2910.51 2861.14,2918.87 2842.94,2930.00 C 2825.08,2941.93 2808.36,2956.65 2791.94,2972.06 C 2776.19,2987.77 2762.01,3004.70 2750.22,3022.63 C 2741.25,3041.72 2733.02,3061.13 2725.26,3080.72 C 2720.45,3101.54 2718.00,3123.33 2715.67,3144.35 C 2713.00,3166.05 2712.00,3188.45 2712.00,3211.26 C 2710.99,3233.65 2710.94,3255.62 2713.43,3277.44 C 2713.97,3300.00 2712.01,3322.00 2711.00,3344.39 C 2710.04,3366.80 2709.00,3389.18 2709.00,3411.99 C 2709.00,3434.80 2709.00,3457.61 2710.00,3480.01 C 2711.01,3502.40 2713.00,3524.39 2713.00,3546.37 C 2722.18,3560.00 2744.99,3560.00 2767.80,3560.00 C 2790.61,3560.00 2813.42,3560.00 2836.23,3560.00 C 2859.04,3560.00 2881.85,3560.00 2904.66,3560.00 C 2927.47,3560.00 2950.28,3560.00 2973.09,3560.00 C 2995.90,3560.00 3018.71,3560.00 3041.52,3560.00 C 3064.33,3560.00 3087.14,3560.00 3109.95,3560.00 C 3132.76,3560.00 3155.57,3560.00 3178.38,3560.00 C 3201.19,3560.00 3224.00,3560.00 3246.81,3560.00 C 3269.62,3560.00 3292.43,3560.00 3315.24,3560.00 C 3338.05,3560.00 3360.86,3560.00 3383.67,3560.00 C 3406.48,3560.00 3429.29,3560.00 3452.10,3560.00 C 3474.91,3560.00 3497.72,3560.00 3520.53,3560.00 C 3543.34,3560.00 3566.15,3560.00 3588.96,3560.00 C 3611.77,3560.00 3634.58,3560.00 3657.39,3560.00 C 3680.20,3560.00 3703.01,3560.00 3725.82,3560.00 C 3748.63,3560.00 3771.44,3560.00 3794.25,3560.00 C 3817.06,3560.00 3825.00,3543.96 3826.00,3521.56 C 3826.00,3498.75 3826.04,3476.78 3825.00,3455.20 C 3825.01,3432.39 3826.00,3409.99 3826.00,3387.18 C 3827.00,3364.79 3828.00,3342.39 3829.00,3320.00 C 3831.00,3298.02 3832.00,3275.62 3832.00,3252.81 C 3832.00,3230.00 3832.01,3207.18 3830.00,3185.21 C 3828.04,3163.21 3824.03,3142.06 3819.00,3121.33 C 3814.40,3100.43 3808.18,3080.19 3802.01,3059.94 C 3793.62,3040.60 3781.99,3022.61 3769.00,3005.18 C 3754.16,2989.11 3737.40,2974.43 3719.84,2961.75 C 3701.92,2949.93 3684.03,2938.05 3665.56,2927.58 C 3646.77,2917.88 3628.07,2907.96 3609.88,2896.81 C 3591.94,2885.04 3573.70,2874.00 3555.02,2864.03 C 3535.95,2855.01 3521.77,2844.14 3538.64,2831.20 C 3557.22,2821.00 3575.37,2809.76 3592.64,2796.36 C 3609.15,2782.74 3626.24,2768.76 3642.28,2753.84 C 3658.35,2737.62 3674.13,2721.95 3688.39,2705.61 C 3703.38,2689.59 3717.39,2672.59 3730.00,2655.00 C 3741.93,2637.13 3751.01,2618.08 3761.00,2599.41 C 3770.05,2580.35 3777.00,2560.42 3785.07,2540.95 C 3794.03,2521.85 3801.05,2501.95 3808.94,2482.41 C 3816.06,2462.55 3832.97,2452.00 3852.47,2444.00 C 3871.95,2435.97 3891.61,2428.35 3911.27,2420.75 C 3929.17,2408.90 3946.23,2395.01 3964.04,2382.94 C 3981.49,2370.00 3995.68,2353.37 4006.78,2335.15 C 4015.02,2315.76 4022.09,2295.88 4025.95,2274.67 C 4030.00,2253.53 4033.76,2232.28 4035.99,2210.39 C 4037.00,2188.83 4035.00,2166.85 4030.01,2146.10 C 4022.99,2126.20 4013.99,2107.12 4004.98,2088.04 C 3994.68,2069.50 3983.48,2051.33 3966.71,2037.94 C 3946.27,2032.22 3948.00,2012.62 3951.01,1991.06 C 3954.34,1969.63 3956.00,1947.51 3957.99,1925.52 C 3960.00,1903.54 3959.99,1881.56 3959.99,1859.57 C 3959.84,1836.84 3959.00,1815.20 3957.01,1793.22 C 3955.00,1771.24 3951.79,1749.76 3947.00,1728.93 C 3942.96,1707.79 3938.94,1686.65 3934.02,1665.88 C 3929.02,1645.14 3922.96,1624.84 3915.98,1604.92 C 3909.01,1585.00 3904.01,1564.26 3899.07,1543.50 C 3893.12,1523.15 3889.00,1502.05 3888.00,1479.65 C 3887.00,1457.25 3886.00,1434.86 3885.00,1412.46 C 3884.00,1390.07 3883.00,1367.67 3882.00,1345.27 C 3881.00,1322.88 3880.00,1300.48 3879.01,1278.08 C 3878.00,1255.69 3877.00,1233.29 3876.00,1210.90 C 3875.00,1188.51 3873.97,1166.12 3866.95,1148.00 C 3846.22,1153.01 3828.31,1164.84 3811.29,1178.83 C 3793.11,1190.01 3775.54,1202.64 3757.89,1215.10 C 3740.84,1229.00 3725.29,1243.69 3709.41,1257.61 C 3692.98,1273.02 3677.56,1289.45 3660.77,1304.04 C 3651.96,1285.30 3644.94,1265.40 3637.93,1245.49 C 3630.93,1225.58 3623.94,1205.67 3617.51,1185.52 C 3610.59,1165.57 3602.00,1146.32 3592.46,1127.46 C 3584.03,1108.15 3574.07,1089.99 3554.40,1095.57 C 3538.45,1110.70 3522.69,1126.31 3507.26,1142.73 C 3490.79,1158.01 3475.95,1173.03 3460.23,1188.75 C 3445.23,1204.77 3430.62,1221.52 3415.75,1238.18 C 3401.74,1255.18 3388.25,1256.18 3376.30,1238.32 C 3363.81,1220.68 3349.81,1203.68 3335.69,1186.72 C 3322.41,1169.41 3307.79,1152.65 3292.98,1135.98 C 3278.00,1119.37 3262.13,1103.13 3246.00,1087.00 C 3230.29,1071.27 3214.56,1055.60 3192.00,1055.00 " fill="none" stroke="black" stroke-width="2" /></svg>